<?xml version="1.0" encoding="utf-8"?>
<!-- Generator: Adobe Illustrator 16.0.0, SVG Export Plug-In . SVG Version: 6.00 Build 0)  -->
<!DOCTYPE svg PUBLIC "-//W3C//DTD SVG 1.1//EN" "http://www.w3.org/Graphics/SVG/1.1/DTD/svg11.dtd">
<svg version="1.1" id="BACKGROUND_2" xmlns="http://www.w3.org/2000/svg" xmlns:xlink="http://www.w3.org/1999/xlink" x="0px"
	 y="0px" width="750px" height="608.333px" viewBox="0 0 750 608.333" enable-background="new 0 0 750 608.333"
	 xml:space="preserve">
<g>
	<defs>
		<polygon id="SVGID_1_" points="750,577.666 0,579 0,0 750,0 		"/>
	</defs>
	<clipPath id="SVGID_2_">
		<use xlink:href="#SVGID_1_"  overflow="visible"/>
	</clipPath>
	<g clip-path="url(#SVGID_2_)">
		<path fill="#C5EAFF" d="M499.939,449.33L499.939,449.33c-1.297-1.296-1.297-3.417,0-4.714l144.249-144.25
			c1.297-1.296,3.418-1.296,4.714,0l0,0c1.297,1.297,1.297,3.418,0,4.715L504.653,449.33
			C503.356,450.627,501.235,450.627,499.939,449.33z"/>
		<path fill="#C5EAFF" d="M405.563,543.706L405.563,543.706c-1.296-1.297-1.296-3.418,0-4.714l34.513-34.513
			c1.297-1.297,3.418-1.297,4.714,0l0,0c1.297,1.296,1.297,3.417,0,4.714l-34.513,34.513
			C408.981,545.002,406.86,545.002,405.563,543.706z"/>
		<path fill="#19A3FF" d="M366.199,523.38L366.199,523.38c-2.723-2.723-2.723-7.177,0-9.899l28.334-28.334
			c2.723-2.723,7.177-2.723,9.899,0l0,0c2.723,2.723,2.723,7.177,0,9.899l-28.334,28.334
			C373.376,526.103,368.922,526.103,366.199,523.38z"/>
		<g>
			<path fill="#0065FF" d="M575.72,526.79L575.72,526.79c-1.296-1.296-1.296-3.417,0-4.714l92.042-92.042
				c1.296-1.296,3.418-1.296,4.714,0l0,0c1.296,1.297,1.296,3.418,0,4.715l-92.042,92.041
				C579.138,528.087,577.017,528.087,575.72,526.79z"/>
			<path fill="#0065FF" d="M453.042,649.468L453.042,649.468c-1.296-1.296-1.296-3.417,0-4.714l20.765-20.765
				c1.296-1.296,3.418-1.296,4.714,0l0,0c1.297,1.297,1.297,3.418,0,4.714l-20.765,20.765
				C456.46,650.765,454.338,650.765,453.042,649.468z"/>
		</g>
		<g>
			<path fill="#0065FF" d="M444.72,416.102L444.72,416.102c-1.296-1.297-1.296-3.418,0-4.714l92.042-92.042
				c1.296-1.297,3.418-1.297,4.714,0l0,0c1.296,1.296,1.296,3.418,0,4.714l-92.042,92.042
				C448.138,417.397,446.017,417.397,444.72,416.102z"/>
			<path fill="#0065FF" d="M372.576,484.779L372.576,484.779c-1.296-1.296-1.296-3.417,0-4.714l20.766-20.765
				c1.296-1.296,3.417-1.296,4.714,0l0,0c1.296,1.297,1.296,3.418,0,4.714l-20.765,20.765
				C375.994,486.076,373.873,486.076,372.576,484.779z"/>
		</g>
		<path fill="#19A3FF" d="M417.134,471.029L417.134,471.029c-2.981-2.982-2.981-7.861,0-10.843l68.118-68.118
			c2.981-2.981,7.86-2.981,10.842,0l0,0c2.981,2.982,2.981,7.861,0,10.843l-68.118,68.118
			C424.994,474.011,420.115,474.011,417.134,471.029z"/>
		<path fill="#0056FF" d="M433.121,526.757L433.121,526.757c-7.701-7.701-7.701-20.303,0-28.003L538.054,393.82
			c7.7-7.7,20.302-7.7,28.003,0l0,0c7.701,7.701,7.701,20.303,0,28.004L461.124,526.757
			C453.423,534.458,440.821,534.458,433.121,526.757z"/>
		<path fill="#6ED1FF" d="M584.238,474.078L584.238,474.078c-4.994-4.993-4.994-13.165,0-18.158l39.824-39.824
			c4.993-4.993,13.165-4.993,18.158,0l0,0c4.994,4.993,4.994,13.165,0,18.158l-39.824,39.824
			C597.403,479.072,589.232,479.072,584.238,474.078z"/>
		<path fill="#2098FF" d="M488.362,542.419L488.362,542.419c-4.993-4.993-4.993-13.165,0-18.158l28.511-28.511
			c4.993-4.993,13.165-4.993,18.158,0l0,0c4.994,4.994,4.994,13.165,0,18.159l-28.51,28.51
			C501.527,547.413,493.356,547.413,488.362,542.419z"/>
		<path fill="#2098FF" d="M611.696,527.598L611.696,527.598c-4.994-4.994-4.994-13.165-0.001-18.158l28.511-28.511
			c4.994-4.994,13.165-4.994,18.159,0l0,0c4.993,4.993,4.993,13.165,0,18.158l-28.511,28.511
			C624.86,532.592,616.689,532.592,611.696,527.598z"/>
		<path fill="#D6DCFF" d="M499.297,572.013L499.297,572.013c-2.982-2.981-2.982-7.861,0-10.843l68.117-68.118
			c2.982-2.981,7.861-2.981,10.843,0l0,0c2.981,2.982,2.981,7.861,0,10.843l-68.118,68.118
			C507.157,574.994,502.278,574.994,499.297,572.013z"/>
		<path fill="#19A3FF" d="M477.036,516.757L477.036,516.757c-7.701-7.701-7.701-20.303,0-28.003L581.969,383.82
			c7.701-7.7,20.303-7.7,28.004,0l0,0c7.7,7.701,7.7,20.303,0,28.004L505.039,516.757
			C497.339,524.458,484.737,524.458,477.036,516.757z"/>
		<path fill="#0056FF" d="M544.209,471.224L544.209,471.224c-2.723-2.723-2.723-7.178,0-9.899l91.314-91.314
			c2.722-2.723,7.177-2.723,9.899,0l0,0c2.722,2.723,2.722,7.178,0,9.899l-91.314,91.314
			C551.387,473.945,546.932,473.945,544.209,471.224z"/>
		<path fill="#D6DCFF" d="M630.67,427.624L630.67,427.624c-1.918-1.917-1.918-5.055,0-6.973l20.554-20.554
			c1.917-1.918,5.056-1.918,6.973,0l0,0c1.918,1.917,1.918,5.055,0,6.973l-20.554,20.554
			C635.725,429.542,632.587,429.542,630.67,427.624z"/>
		<path fill="#D6DCFF" d="M431.999,472.092L431.999,472.092c-1.917-1.917-1.917-5.055,0-6.973l20.555-20.554
			c1.917-1.918,5.055-1.918,6.973,0l0,0c1.917,1.917,1.917,5.056,0,6.973l-20.555,20.554
			C437.055,474.01,433.917,474.01,431.999,472.092z"/>
		<path fill="#0056FF" d="M518.801,395.593c-1.113-1.113-2.936-1.113-4.049,0l-11.935,11.935c-1.113,1.113-1.113,2.936,0,4.049
			s2.936,1.113,4.049,0l11.935-11.935C519.914,398.528,519.914,396.706,518.801,395.593z"/>
		<path fill="#6ED1FF" d="M548.656,489.001c-1.114-1.113-2.936-1.113-4.049,0l-11.935,11.935c-1.113,1.113-1.113,2.935,0,4.049
			c1.113,1.113,2.936,1.113,4.049,0l11.935-11.935C549.77,491.937,549.77,490.114,548.656,489.001z"/>
		<path fill="#D6DCFF" d="M529.741,464.229L529.741,464.229c-0.583-0.583-0.583-1.538,0-2.121l107.127-107.127
			c0.583-0.583,1.538-0.583,2.121,0l0,0c0.584,0.584,0.584,1.538,0,2.122L531.863,464.229
			C531.279,464.813,530.325,464.813,529.741,464.229z"/>
		<path fill="#D6DCFF" d="M539.207,368.123L539.207,368.123c-0.583-0.583-0.583-1.538,0-2.121l80.055-80.054
			c0.583-0.583,1.537-0.583,2.121,0l0,0c0.583,0.583,0.583,1.538,0,2.121l-80.054,80.054
			C540.745,368.706,539.791,368.706,539.207,368.123z"/>
		<path fill="#D6DCFF" d="M557.085,540.376L557.085,540.376c-0.584-0.583-0.584-1.538,0-2.121l107.126-107.127
			c0.584-0.583,1.538-0.583,2.122,0l0,0c0.583,0.583,0.583,1.538,0,2.121L559.206,540.376
			C558.623,540.959,557.668,540.959,557.085,540.376z"/>
		<path fill="#D6DCFF" d="M463.177,533.469L463.177,533.469c-0.583-0.583-0.583-1.538,0-2.121l26.646-26.647
			c0.584-0.583,1.538-0.583,2.122,0l0,0c0.583,0.584,0.583,1.538,0,2.122l-26.647,26.646
			C464.715,534.052,463.76,534.052,463.177,533.469z"/>
		<path fill="#D6DCFF" d="M384.644,467.136L384.644,467.136c-0.583-0.584-0.583-1.538,0-2.121l26.646-26.647
			c0.584-0.583,1.538-0.583,2.122,0l0,0c0.583,0.584,0.583,1.538,0,2.121l-26.647,26.647
			C386.182,467.719,385.227,467.719,384.644,467.136z"/>
		<path fill="#19A3FF" d="M569.981,479.052L569.981,479.052c-0.583-0.584-0.583-1.538,0-2.122l26.647-26.646
			c0.583-0.583,1.537-0.583,2.121,0l0,0c0.583,0.584,0.583,1.538,0,2.121l-26.647,26.647
			C571.52,479.635,570.564,479.635,569.981,479.052z"/>
		<path fill="#19A3FF" d="M544.177,332.069L544.177,332.069c-0.583-0.583-0.583-1.537,0-2.121l26.647-26.646
			c0.583-0.584,1.537-0.584,2.121,0l0,0c0.583,0.583,0.583,1.538,0,2.121l-26.647,26.646
			C545.715,332.653,544.76,332.653,544.177,332.069z"/>
		<path fill="#D6DCFF" d="M481.604,407.251L481.604,407.251c-0.584-0.584-0.584-1.538,0-2.122l26.646-26.646
			c0.584-0.583,1.538-0.583,2.121,0l0,0c0.584,0.583,0.584,1.538,0,2.121l-26.646,26.647
			C483.142,407.834,482.187,407.834,481.604,407.251z"/>
		<path fill="#6ED1FF" d="M428.528,489.248c-1.079-1.079-2.845-1.079-3.924,0l-11.565,11.565c-1.079,1.079-1.079,2.845,0,3.924
			s2.845,1.079,3.924,0l11.565-11.565C429.607,492.093,429.607,490.327,428.528,489.248z"/>
		<path fill="#19A3FF" d="M509.727,437.343c-1.078-1.079-2.844-1.079-3.923,0l-11.566,11.565c-1.079,1.079-1.079,2.845,0,3.924
			s2.845,1.079,3.924,0l11.565-11.566C510.806,440.188,510.806,438.422,509.727,437.343z"/>
		<path fill="#6ED1FF" d="M599.467,524.2L599.467,524.2c-1.918-1.917-1.918-5.055,0-6.973l20.554-20.554
			c1.917-1.918,5.056-1.918,6.973,0l0,0c1.918,1.917,1.918,5.055,0,6.973L606.439,524.2
			C604.521,526.118,601.384,526.118,599.467,524.2z"/>
		<path fill="#0065FF" d="M612.272,311.438c-1.276-1.277-3.366-1.277-4.643,0l-3.293,3.293c-1.276,1.276-1.276,3.365,0,4.642
			s3.365,1.276,4.643,0l3.293-3.293C613.549,314.803,613.549,312.714,612.272,311.438z"/>
		<path fill="#6ED1FF" d="M449.73,385.865c-1.276-1.277-3.365-1.277-4.643,0l-3.293,3.293c-1.276,1.276-1.276,3.365,0,4.642
			c1.276,1.277,3.365,1.277,4.643,0l3.293-3.293C451.007,389.23,451.007,387.142,449.73,385.865z"/>
		<path fill="#6ED1FF" d="M529.569,379.414L529.569,379.414c-4.993-4.994-4.993-13.165,0-18.159l39.824-39.824
			c4.993-4.993,13.165-4.993,18.159,0l0,0c4.993,4.994,4.993,13.165,0,18.159l-39.824,39.824
			C542.734,384.407,534.563,384.407,529.569,379.414z"/>
		<path fill="#19A3FF" d="M531.586,389.232L531.586,389.232c-0.584-0.583-0.584-1.538,0-2.121l45.263-45.263
			c0.583-0.583,1.538-0.583,2.121,0l0,0c0.583,0.583,0.583,1.538,0,2.121l-45.263,45.263
			C533.123,389.816,532.169,389.816,531.586,389.232z"/>
		<path fill="#6ED1FF" d="M508.481,484.198c-1.276-1.276-3.365-1.276-4.642,0l-3.294,3.293c-1.276,1.276-1.276,3.365,0,4.643
			c1.276,1.276,3.366,1.276,4.643,0l3.293-3.294C509.758,487.563,509.758,485.475,508.481,484.198z"/>
		<path fill="#0056FF" d="M584.461,489.123c-1.276-1.276-3.365-1.276-4.643,0l-3.293,3.293c-1.276,1.277-1.276,3.366,0,4.643
			c1.277,1.276,3.365,1.276,4.643,0l3.293-3.293C585.737,492.489,585.737,490.4,584.461,489.123z"/>
	</g>
	<g clip-path="url(#SVGID_2_)">
		<path fill="#C5EAFF" d="M155.149,59.507L155.149,59.507c-1.297-1.296-1.297-3.418,0-4.714l144.25-144.25
			c1.296-1.296,3.417-1.296,4.714,0l0,0c1.296,1.296,1.296,3.417,0,4.714l-144.25,144.25
			C158.567,60.803,156.445,60.803,155.149,59.507z"/>
		<path fill="#C5EAFF" d="M60.774,153.882L60.774,153.882c-1.297-1.296-1.297-3.417,0-4.714l34.512-34.513
			c1.297-1.296,3.418-1.296,4.715,0l0,0c1.296,1.296,1.296,3.418,0,4.714l-34.513,34.513
			C64.191,155.178,62.07,155.178,60.774,153.882z"/>
		<path fill="#19A3FF" d="M21.409,133.557L21.409,133.557c-2.722-2.723-2.722-7.178,0-9.9l28.334-28.334
			c2.723-2.723,7.178-2.723,9.899,0l0,0c2.723,2.723,2.723,7.178,0,9.9l-28.334,28.334
			C28.587,136.278,24.132,136.278,21.409,133.557z"/>
		<g>
			<path fill="#0065FF" d="M230.93,136.967L230.93,136.967c-1.296-1.297-1.296-3.418,0-4.715l92.042-92.041
				c1.297-1.297,3.418-1.297,4.714,0l0,0c1.297,1.297,1.297,3.418,0,4.714l-92.041,92.042
				C234.348,138.264,232.227,138.264,230.93,136.967z"/>
			<path fill="#0065FF" d="M145.043,224.311L145.043,224.311c-1.297-1.296-1.297-3.418,0-4.713l46.648-46.649
				c1.296-1.296,3.418-1.296,4.714,0l0,0c1.296,1.296,1.297,3.417,0,4.714l-46.648,46.648
				C148.46,225.607,146.339,225.607,145.043,224.311z"/>
		</g>
		<g>
			<path fill="#0065FF" d="M99.93,26.277L99.93,26.277c-1.296-1.297-1.296-3.418,0-4.714l92.042-92.042
				c1.297-1.296,3.418-1.296,4.714,0l0,0c1.297,1.296,1.297,3.417,0,4.714l-92.041,92.042
				C103.348,27.574,101.227,27.574,99.93,26.277z"/>
			<path fill="#0065FF" d="M27.787,94.956L27.787,94.956c-1.297-1.296-1.297-3.418,0-4.714l20.765-20.765
				c1.296-1.297,3.417-1.297,4.714,0l0,0c1.297,1.296,1.297,3.417,0,4.714L32.501,94.956C31.205,96.252,29.083,96.252,27.787,94.956
				z"/>
		</g>
		<path fill="#19A3FF" d="M72.344,81.205L72.344,81.205c-2.981-2.981-2.981-7.86,0-10.842l68.118-68.118
			c2.981-2.981,7.86-2.981,10.842,0l0,0c2.982,2.981,2.982,7.86,0,10.843L83.187,81.205C80.204,84.188,75.325,84.188,72.344,81.205z
			"/>
		<path fill="#0056FF" d="M88.331,136.934L88.331,136.934c-7.701-7.701-7.701-20.303,0-28.004L193.264,3.996
			c7.701-7.7,20.303-7.7,28.003,0l0.001,0.001c7.7,7.7,7.7,20.302,0,28.003L116.334,136.934
			C108.633,144.634,96.032,144.634,88.331,136.934z"/>
		<path fill="#6ED1FF" d="M239.448,84.254L239.448,84.254c-4.993-4.992-4.993-13.164,0-18.158l39.824-39.824
			c4.994-4.993,13.165-4.993,18.159,0l0,0c4.993,4.994,4.993,13.166,0,18.158l-39.824,39.824
			C252.613,89.248,244.442,89.248,239.448,84.254z"/>
		<path fill="#2098FF" d="M143.573,152.596L143.573,152.596c-4.994-4.994-4.994-13.165,0-18.158l28.51-28.512
			c4.994-4.993,13.165-4.993,18.159,0l0,0c4.993,4.994,4.993,13.166,0,18.159l-28.511,28.511
			C156.738,157.589,148.566,157.589,143.573,152.596z"/>
		<path fill="#2098FF" d="M266.906,137.773L266.906,137.773c-4.994-4.993-4.994-13.164,0-18.158l28.511-28.51
			c4.993-4.994,13.165-4.994,18.158,0l0,0c4.993,4.993,4.993,13.164,0,18.158l-28.511,28.51
			C280.071,142.768,271.899,142.768,266.906,137.773z"/>
		<path fill="#D6DCFF" d="M154.507,182.188L154.507,182.188c-2.981-2.981-2.981-7.86,0-10.843l68.118-68.117
			c2.981-2.982,7.86-2.982,10.842,0l0,0c2.982,2.981,2.982,7.86,0,10.842l-68.117,68.118
			C162.367,185.17,157.488,185.17,154.507,182.188z"/>
		<path fill="#19A3FF" d="M132.246,126.934L132.246,126.934c-7.7-7.701-7.7-20.303,0-28.004L237.18-6.004
			c7.7-7.7,20.302-7.7,28.003,0v0.001c7.701,7.7,7.701,20.302,0,28.003L160.25,126.934
			C152.549,134.634,139.947,134.634,132.246,126.934z"/>
		<path fill="#0056FF" d="M199.419,81.399L199.419,81.399c-2.722-2.722-2.722-7.177,0-9.899l91.314-91.314
			c2.723-2.722,7.177-2.722,9.899,0l0,0c2.723,2.723,2.723,7.177,0,9.899l-91.313,91.314
			C206.597,84.122,202.142,84.122,199.419,81.399z"/>
		<path fill="#D6DCFF" d="M285.88,37.801L285.88,37.801c-1.918-1.918-1.918-5.056,0-6.973l20.554-20.555
			c1.918-1.918,5.056-1.918,6.973,0l0,0c1.918,1.918,1.918,5.055,0,6.973l-20.554,20.555
			C290.935,39.718,287.797,39.718,285.88,37.801z"/>
		<path fill="#D6DCFF" d="M87.209,82.269L87.209,82.269c-1.917-1.917-1.917-5.056,0-6.974l20.555-20.553
			c1.917-1.918,5.056-1.918,6.973,0l0,0c1.918,1.917,1.918,5.055,0,6.973L94.183,82.269C92.265,84.186,89.127,84.186,87.209,82.269z
			"/>
		<path fill="#0056FF" d="M174.011,5.77c-1.113-1.114-2.936-1.114-4.049,0l-11.935,11.934c-1.113,1.113-1.113,2.936,0,4.049
			c1.114,1.113,2.936,1.113,4.049,0l11.935-11.935C175.124,8.704,175.124,6.883,174.011,5.77z"/>
		<path fill="#6ED1FF" d="M203.866,99.178c-1.113-1.114-2.936-1.114-4.049,0l-11.935,11.934c-1.113,1.113-1.113,2.936,0,4.049
			s2.936,1.113,4.049,0l11.935-11.935C204.979,102.112,204.979,100.291,203.866,99.178z"/>
		<path fill="#D6DCFF" d="M184.952,74.406L184.952,74.406c-0.584-0.584-0.584-1.538,0-2.121L292.078-34.842
			c0.584-0.583,1.538-0.583,2.122,0l0,0c0.583,0.583,0.583,1.538,0,2.121L187.073,74.406
			C186.49,74.989,185.535,74.989,184.952,74.406z"/>
		<path fill="#D6DCFF" d="M194.418-21.701L194.418-21.701c-0.584-0.583-0.584-1.538,0-2.121l80.054-80.054
			c0.583-0.583,1.538-0.583,2.121,0l0,0c0.583,0.583,0.583,1.538,0,2.121l-80.054,80.054
			C195.956-21.117,195.001-21.117,194.418-21.701z"/>
		<path fill="#D6DCFF" d="M212.295,150.553L212.295,150.553c-0.583-0.584-0.583-1.539,0-2.122L319.422,41.305
			c0.583-0.584,1.538-0.584,2.121,0l0,0c0.583,0.583,0.583,1.537,0,2.121L214.416,150.553
			C213.833,151.136,212.878,151.136,212.295,150.553z"/>
		<path fill="#D6DCFF" d="M118.387,143.645L118.387,143.645c-0.583-0.583-0.583-1.537,0-2.121l26.647-26.646
			c0.583-0.584,1.538-0.584,2.121,0l0,0c0.583,0.583,0.583,1.538,0,2.121l-26.647,26.646
			C119.925,144.229,118.971,144.229,118.387,143.645z"/>
		<path fill="#D6DCFF" d="M39.854,77.312L39.854,77.312c-0.583-0.583-0.583-1.538,0-2.121l26.647-26.647
			c0.583-0.583,1.538-0.583,2.121,0l0,0c0.583,0.584,0.583,1.539,0,2.122L41.975,77.312C41.392,77.895,40.438,77.895,39.854,77.312z
			"/>
		<path fill="#19A3FF" d="M225.191,89.229L225.191,89.229c-0.583-0.584-0.583-1.539,0-2.122l26.647-26.647
			c0.583-0.583,1.538-0.583,2.121,0l0,0c0.583,0.584,0.583,1.539,0,2.121l-26.646,26.648
			C226.729,89.811,225.775,89.811,225.191,89.229z"/>
		<path fill="#19A3FF" d="M199.387-57.754L199.387-57.754c-0.583-0.583-0.583-1.538,0-2.122l26.647-26.647
			c0.583-0.583,1.538-0.583,2.121,0l0,0c0.583,0.583,0.583,1.538,0,2.122l-26.646,26.647
			C200.925-57.171,199.971-57.171,199.387-57.754z"/>
		<path fill="#D6DCFF" d="M136.813,17.427L136.813,17.427c-0.583-0.583-0.583-1.538,0-2.121l26.646-26.647
			c0.584-0.583,1.538-0.583,2.122,0l0,0c0.583,0.583,0.583,1.538,0,2.122l-26.647,26.646
			C138.352,18.01,137.396,18.01,136.813,17.427z"/>
		<path fill="#6ED1FF" d="M83.738,99.424c-1.078-1.079-2.844-1.079-3.923,0L68.249,110.99c-1.079,1.078-1.079,2.844,0,3.924
			c1.079,1.078,2.845,1.078,3.924,0l11.565-11.566C84.817,102.269,84.817,100.503,83.738,99.424z"/>
		<path fill="#19A3FF" d="M164.938,47.519c-1.079-1.079-2.845-1.079-3.924,0l-11.565,11.565c-1.079,1.079-1.079,2.846,0,3.924
			c1.079,1.079,2.845,1.079,3.923,0l11.566-11.565C166.017,50.363,166.017,48.598,164.938,47.519z"/>
		<path fill="#6ED1FF" d="M254.677,134.377L254.677,134.377c-1.918-1.918-1.918-5.056,0-6.973l20.554-20.555
			c1.918-1.918,5.056-1.918,6.973,0l0,0c1.918,1.918,1.918,5.056,0,6.973l-20.554,20.555
			C259.732,136.294,256.594,136.294,254.677,134.377z"/>
		<path fill="#0065FF" d="M267.482-78.387c-1.276-1.277-3.365-1.277-4.642,0l-3.294,3.293c-1.276,1.277-1.276,3.366,0,4.642
			c1.277,1.277,3.366,1.277,4.643,0l3.293-3.293C268.759-75.021,268.759-77.11,267.482-78.387z"/>
		<path fill="#6ED1FF" d="M104.94-3.959c-1.276-1.276-3.365-1.276-4.642,0l-3.293,3.293c-1.277,1.277-1.277,3.365,0,4.643
			c1.276,1.276,3.365,1.276,4.642,0l3.293-3.293C106.217-0.594,106.217-2.682,104.94-3.959z"/>
		<path fill="#6ED1FF" d="M184.779-10.41L184.779-10.41c-4.993-4.994-4.993-13.165,0-18.159l39.824-39.824
			c4.994-4.994,13.165-4.994,18.159,0l0,0c4.993,4.994,4.993,13.165,0,18.159L202.938-10.41
			C197.944-5.416,189.773-5.416,184.779-10.41z"/>
		<path fill="#19A3FF" d="M186.796-0.592L186.796-0.592c-0.583-0.582-0.583-1.537,0-2.121l45.263-45.262
			c0.583-0.583,1.538-0.583,2.121,0l0,0c0.584,0.583,0.584,1.538,0,2.121L188.917-0.592C188.334-0.008,187.379-0.008,186.796-0.592z
			"/>
		<path fill="#6ED1FF" d="M163.691,94.375c-1.276-1.277-3.365-1.277-4.642,0l-3.293,3.293c-1.277,1.276-1.277,3.365,0,4.642
			c1.276,1.276,3.365,1.276,4.642,0l3.293-3.293C164.969,97.74,164.969,95.65,163.691,94.375z"/>
		<path fill="#0056FF" d="M239.671,99.299c-1.276-1.275-3.365-1.275-4.642,0l-3.293,3.294c-1.277,1.276-1.277,3.365,0,4.642
			c1.276,1.277,3.365,1.277,4.642,0l3.293-3.293C240.947,102.665,240.947,100.576,239.671,99.299z"/>
	</g>
	<g clip-path="url(#SVGID_2_)">
		<g>
			<path fill="#0065FF" d="M321.041,487.569L321.041,487.569c-1.297-1.297-1.297-3.418,0-4.714l92.041-92.042
				c1.297-1.297,3.418-1.297,4.715,0l0,0c1.296,1.296,1.296,3.418,0,4.714l-92.042,92.042
				C324.458,488.865,322.337,488.865,321.041,487.569z"/>
			<path fill="#0065FF" d="M248.897,556.248L248.897,556.248c-1.296-1.297-1.296-3.418,0-4.715l20.765-20.765
				c1.297-1.296,3.418-1.296,4.714,0l0,0c1.297,1.297,1.297,3.418,0,4.714l-20.765,20.766
				C252.315,557.544,250.194,557.544,248.897,556.248z"/>
		</g>
		<path fill="#D6DCFF" d="M330.23,432.549L330.23,432.549c-1.918-1.917-1.918-5.055,0-6.973l20.554-20.554
			c1.917-1.918,5.056-1.918,6.973,0l0,0c1.918,1.917,1.918,5.056,0,6.973l-20.554,20.554
			C335.285,434.467,332.147,434.467,330.23,432.549z"/>
		<path fill="#0056FF" d="M262.104,394.571c-1.113-1.113-2.936-1.113-4.049,0l-11.934,11.935c-1.114,1.113-1.114,2.935,0,4.049
			c1.113,1.113,2.935,1.113,4.048,0l11.935-11.935C263.217,397.507,263.217,395.685,262.104,394.571z"/>
		<path fill="#D6DCFF" d="M206.479,532.447L206.479,532.447c-0.583-0.583-0.583-1.538,0-2.121l26.647-26.647
			c0.583-0.583,1.538-0.583,2.121,0l0,0c0.583,0.584,0.583,1.538,0,2.122l-26.646,26.646
			C208.018,533.03,207.063,533.03,206.479,532.447z"/>
		<path fill="#19A3FF" d="M269.542,483.977L269.542,483.977c-0.583-0.583-0.583-1.538,0-2.121l26.647-26.647
			c0.583-0.583,1.537-0.583,2.121,0l0,0c0.583,0.584,0.583,1.538,0,2.122l-26.647,26.646
			C271.08,484.56,270.125,484.56,269.542,483.977z"/>
		<path fill="#6ED1FF" d="M457.237,346.8c-1.079-1.079-2.845-1.079-3.923,0l-11.566,11.565c-1.079,1.079-1.079,2.845,0,3.924
			s2.845,1.079,3.924,0l11.565-11.565C458.316,349.645,458.316,347.879,457.237,346.8z"/>
		<path fill="#19A3FF" d="M253.03,436.32c-1.079-1.078-2.845-1.078-3.924,0l-11.565,11.566c-1.079,1.079-1.079,2.845,0,3.924
			s2.845,1.079,3.924,0l11.565-11.566C254.109,439.165,254.109,437.399,253.03,436.32z"/>
		<path fill="#0065FF" d="M389.283,355.502c-1.276-1.276-3.365-1.276-4.642,0l-3.293,3.293c-1.276,1.276-1.276,3.365,0,4.643
			c1.276,1.276,3.365,1.276,4.642,0l3.293-3.294C390.561,358.867,390.561,356.778,389.283,355.502z"/>
		<path fill="#6ED1FF" d="M326.051,457.333c-1.276-1.277-3.365-1.277-4.642,0l-3.293,3.293c-1.276,1.276-1.276,3.365,0,4.642
			c1.276,1.277,3.365,1.277,4.642,0l3.293-3.293C327.328,460.698,327.328,458.609,326.051,457.333z"/>
		<path fill="#19A3FF" d="M288.543,417.428L288.543,417.428c-0.583-0.583-0.583-1.538,0-2.121l45.263-45.263
			c0.584-0.583,1.538-0.583,2.122,0l0,0c0.583,0.583,0.583,1.538,0,2.121l-45.263,45.263
			C290.081,418.012,289.127,418.012,288.543,417.428z"/>
		<path fill="#6ED1FF" d="M251.784,483.177c-1.276-1.276-3.365-1.276-4.642,0l-3.293,3.293c-1.277,1.276-1.277,3.365,0,4.643
			c1.276,1.276,3.365,1.276,4.642,0l3.293-3.294C253.062,486.542,253.062,484.453,251.784,483.177z"/>
		<path fill="#0056FF" d="M284.021,494.048c-1.276-1.276-3.365-1.276-4.643,0l-3.293,3.294c-1.276,1.276-1.276,3.365,0,4.642
			c1.277,1.276,3.365,1.276,4.643,0l3.293-3.293C285.298,497.414,285.298,495.325,284.021,494.048z"/>
	</g>
	<g clip-path="url(#SVGID_2_)">
		<g>
			<path fill="#0065FF" d="M3.519,69.846L3.519,69.846c-1.296-1.296-1.296-3.417,0-4.713L95.561-26.91
				c1.296-1.296,3.417-1.296,4.714,0l0,0c1.296,1.296,1.296,3.418,0,4.714L8.232,69.846C6.937,71.143,4.814,71.143,3.519,69.846z"/>
			<path fill="#0065FF" d="M-68.625,138.525L-68.625,138.525c-1.296-1.297-1.296-3.418,0-4.715l20.765-20.765
				c1.297-1.296,3.418-1.296,4.715,0l0,0c1.296,1.296,1.296,3.418,0,4.714l-20.765,20.766
				C-65.207,139.82-67.328,139.82-68.625,138.525z"/>
		</g>
		<path fill="#D6DCFF" d="M12.708,14.826L12.708,14.826c-1.918-1.918-1.918-5.055,0-6.973l20.554-20.554
			c1.918-1.917,5.056-1.917,6.973,0l0,0c1.918,1.917,1.918,5.056,0,6.973L19.681,14.826C17.764,16.744,14.625,16.744,12.708,14.826z
			"/>
		<path fill="#0056FF" d="M-55.419-23.152c-1.113-1.113-2.935-1.113-4.048,0l-11.935,11.935c-1.113,1.113-1.113,2.935,0,4.049
			c1.113,1.113,2.935,1.113,4.049,0l11.934-11.935C-54.305-20.216-54.305-22.039-55.419-23.152z"/>
		<path fill="#D6DCFF" d="M-111.042,114.725L-111.042,114.725c-0.584-0.584-0.584-1.538,0-2.121l26.646-26.647
			c0.583-0.583,1.538-0.583,2.121,0l0,0c0.584,0.583,0.584,1.538,0,2.122l-26.646,26.646
			C-109.504,115.308-110.459,115.308-111.042,114.725z"/>
		<path fill="#19A3FF" d="M-47.98,66.254L-47.98,66.254c-0.583-0.584-0.583-1.538,0-2.121l26.647-26.647
			c0.583-0.583,1.538-0.583,2.121,0l0,0c0.583,0.583,0.583,1.538,0,2.122l-26.646,26.646C-46.442,66.837-47.396,66.837-47.98,66.254
			z"/>
		<path fill="#6ED1FF" d="M139.716-70.923c-1.079-1.079-2.845-1.079-3.924,0l-11.566,11.566c-1.079,1.079-1.079,2.845,0,3.924
			c1.079,1.079,2.845,1.079,3.924,0L139.716-67C140.794-68.079,140.794-69.844,139.716-70.923z"/>
		<path fill="#19A3FF" d="M-64.492,18.598c-1.079-1.078-2.845-1.078-3.924,0l-11.565,11.566c-1.079,1.078-1.079,2.844,0,3.924
			c1.079,1.078,2.845,1.078,3.924,0l11.565-11.566C-63.413,21.442-63.413,19.677-64.492,18.598z"/>
		<path fill="#0065FF" d="M71.762-62.221c-1.277-1.276-3.366-1.276-4.643,0l-3.293,3.293c-1.276,1.276-1.276,3.365,0,4.642
			c1.276,1.276,3.365,1.276,4.643,0l3.293-3.293C73.038-58.855,73.038-60.944,71.762-62.221z"/>
		<path fill="#6ED1FF" d="M8.529,39.609c-1.276-1.276-3.366-1.276-4.643,0l-3.293,3.293c-1.276,1.277-1.276,3.366,0,4.643
			c1.276,1.277,3.365,1.277,4.643,0l3.293-3.293C9.806,42.975,9.806,40.887,8.529,39.609z"/>
		<path fill="#19A3FF" d="M-28.979-0.295L-28.979-0.295c-0.584-0.584-0.584-1.538,0-2.121l45.263-45.263
			c0.583-0.583,1.538-0.583,2.121,0l0,0c0.583,0.583,0.583,1.538,0,2.121L-26.857-0.295C-27.44,0.289-28.396,0.289-28.979-0.295z"/>
		<path fill="#6ED1FF" d="M-65.737,65.453c-1.277-1.275-3.366-1.275-4.643,0l-3.293,3.294c-1.276,1.276-1.276,3.365,0,4.642
			c1.276,1.277,3.365,1.277,4.642,0l3.294-3.293C-64.461,68.819-64.461,66.73-65.737,65.453z"/>
		<path fill="#0056FF" d="M-33.501,76.326c-1.276-1.277-3.365-1.277-4.642,0l-3.293,3.293c-1.277,1.275-1.277,3.365,0,4.642
			c1.276,1.276,3.365,1.276,4.642,0l3.293-3.294C-32.225,79.691-32.225,77.602-33.501,76.326z"/>
	</g>
	<g clip-path="url(#SVGID_2_)">
		<g>
			<path fill="#0065FF" d="M746.094,356.294L746.094,356.294c-1.297-1.297-1.297-3.418,0-4.714l92.041-92.042
				c1.297-1.297,3.418-1.297,4.715,0l0,0c1.296,1.296,1.296,3.417,0,4.714l-92.042,92.042
				C749.512,357.59,747.39,357.59,746.094,356.294z"/>
		</g>
		<path fill="#D6DCFF" d="M755.283,301.273L755.283,301.273c-1.918-1.917-1.918-5.055,0-6.973l20.554-20.554
			c1.917-1.918,5.056-1.918,6.973,0l0,0c1.918,1.917,1.918,5.055,0,6.973l-20.554,20.554
			C760.338,303.191,757.2,303.191,755.283,301.273z"/>
		<path fill="#0056FF" d="M698.14,268.609c-1.61-1.575-4.245-1.575-5.855,0l-17.259,16.889c-1.61,1.575-1.61,4.153,0,5.729
			c1.609,1.575,4.244,1.575,5.854,0l17.26-16.889C699.749,272.764,699.749,270.185,698.14,268.609z"/>
		<path fill="#D6DCFF" d="M631.533,401.172L631.533,401.172c-0.584-0.583-0.584-1.538,0-2.121l26.646-26.647
			c0.583-0.583,1.538-0.583,2.121,0l0,0c0.584,0.584,0.584,1.538,0,2.122l-26.646,26.646
			C633.07,401.755,632.116,401.755,631.533,401.172z"/>
		<path fill="#D6DCFF" d="M694.595,352.701L694.595,352.701c-0.583-0.583-0.583-1.538,0-2.121l26.647-26.647
			c0.583-0.583,1.538-0.583,2.121,0l0,0c0.583,0.584,0.583,1.538,0,2.122l-26.646,26.646
			C696.133,353.284,695.178,353.284,694.595,352.701z"/>
		<path fill="#6ED1FF" d="M882.29,215.524c-1.079-1.079-2.845-1.079-3.923,0l-11.566,11.565c-1.079,1.079-1.079,2.845,0,3.924
			s2.845,1.079,3.924,0l11.565-11.566C883.369,218.369,883.369,216.604,882.29,215.524z"/>
		<path fill="#19A3FF" d="M695.736,310.629c-1.079-1.079-2.845-1.079-3.924,0l-11.565,11.565c-1.079,1.079-1.079,2.845,0,3.924
			s2.845,1.079,3.924,0l11.565-11.566C696.815,313.474,696.815,311.708,695.736,310.629z"/>
		<path fill="#0065FF" d="M814.336,224.227c-1.276-1.277-3.365-1.277-4.642,0l-3.293,3.293c-1.276,1.276-1.276,3.365,0,4.643
			c1.276,1.275,3.365,1.275,4.642,0l3.293-3.294C815.613,227.592,815.613,225.503,814.336,224.227z"/>
		<path fill="#6ED1FF" d="M751.104,326.058c-1.277-1.277-3.366-1.277-4.643,0l-3.293,3.293c-1.276,1.276-1.276,3.365,0,4.642
			s3.365,1.276,4.642,0l3.294-3.293C752.381,329.423,752.381,327.334,751.104,326.058z"/>
		<path fill="#19A3FF" d="M713.597,286.152L713.597,286.152c-0.584-0.583-0.584-1.538,0-2.121l45.263-45.263
			c0.583-0.583,1.537-0.583,2.121,0l0,0c0.583,0.583,0.583,1.538,0,2.121l-45.263,45.263
			C715.135,286.736,714.18,286.736,713.597,286.152z"/>
		<path fill="#6ED1FF" d="M675.663,348.817c-1.276-1.276-3.366-1.276-4.643,0l-3.293,3.293c-1.276,1.276-1.276,3.366,0,4.643
			s3.365,1.276,4.643,0l3.293-3.293C676.939,352.183,676.939,350.094,675.663,348.817z"/>
		<path fill="#6ED1FF" d="M700.514,379.191c-1.277-1.276-3.366-1.276-4.643,0l-3.293,3.293c-1.276,1.276-1.276,3.365,0,4.642
			c1.276,1.277,3.365,1.277,4.642,0l3.294-3.293C701.79,382.557,701.79,380.468,700.514,379.191z"/>
	</g>
	<g clip-path="url(#SVGID_2_)">
		<g>
			<path fill="#0065FF" d="M34.08,354.069L34.08,354.069c1.297,1.296,1.297,3.417,0,4.714l-92.042,92.041
				c-1.296,1.297-3.417,1.297-4.714,0l0,0c-1.296-1.296-1.296-3.417,0-4.714l92.042-92.041
				C30.662,352.772,32.784,352.772,34.08,354.069z"/>
		</g>
		<path fill="#D6DCFF" d="M24.891,409.089L24.891,409.089c1.918,1.917,1.918,5.056,0,6.973L4.337,436.615
			c-1.918,1.918-5.056,1.918-6.973,0l0,0c-1.918-1.917-1.918-5.055,0-6.973l20.554-20.554
			C19.836,407.171,22.974,407.171,24.891,409.089z"/>
		<path fill="#0056FF" d="M82.034,441.753c1.61,1.576,4.245,1.576,5.855,0l17.259-16.889c1.61-1.575,1.61-4.153,0-5.729
			c-1.609-1.575-4.244-1.575-5.854,0l-17.26,16.889C80.425,437.6,80.425,440.178,82.034,441.753z"/>
		<path fill="#D6DCFF" d="M148.641,309.19L148.641,309.19c0.584,0.584,0.584,1.538,0,2.122l-26.646,26.646
			c-0.583,0.583-1.538,0.583-2.121,0l0,0c-0.584-0.583-0.584-1.538,0-2.121l26.646-26.647
			C147.104,308.607,148.058,308.607,148.641,309.19z"/>
		<path fill="#D6DCFF" d="M85.579,357.661L85.579,357.661c0.583,0.584,0.583,1.538,0,2.121L58.932,386.43
			c-0.583,0.583-1.538,0.583-2.121,0l0,0c-0.583-0.584-0.583-1.538,0-2.121l26.646-26.647
			C84.041,357.078,84.995,357.078,85.579,357.661z"/>
		<path fill="#6ED1FF" d="M-102.116,494.838c1.079,1.079,2.844,1.079,3.923,0l11.566-11.565c1.079-1.079,1.079-2.845,0-3.924
			s-2.845-1.079-3.924,0l-11.565,11.566C-103.195,491.994-103.195,493.76-102.116,494.838z"/>
		<path fill="#19A3FF" d="M84.438,399.734c1.079,1.079,2.845,1.079,3.924,0l11.565-11.566c1.079-1.079,1.079-2.845,0-3.924
			s-2.845-1.079-3.924,0l-11.565,11.566C83.358,396.89,83.358,398.655,84.438,399.734z"/>
		<path fill="#0065FF" d="M-34.162,486.136c1.276,1.277,3.365,1.277,4.642,0l3.293-3.293c1.276-1.276,1.276-3.365,0-4.642
			c-1.276-1.277-3.365-1.277-4.642,0l-3.293,3.293C-35.439,482.771-35.439,484.859-34.162,486.136z"/>
		<path fill="#6ED1FF" d="M29.069,384.306c1.277,1.276,3.366,1.276,4.643,0l3.293-3.294c1.276-1.276,1.276-3.365,0-4.642
			s-3.365-1.276-4.642,0l-3.294,3.293C27.793,380.939,27.793,383.028,29.069,384.306z"/>
		<path fill="#19A3FF" d="M66.577,424.21L66.577,424.21c0.584,0.583,0.584,1.538,0,2.121l-45.263,45.263
			c-0.583,0.584-1.537,0.584-2.121,0l0,0c-0.583-0.583-0.583-1.538,0-2.121l45.263-45.263
			C65.04,423.627,65.994,423.627,66.577,424.21z"/>
		<path fill="#6ED1FF" d="M104.511,361.545c1.276,1.276,3.365,1.276,4.643,0l3.293-3.293c1.276-1.276,1.276-3.365,0-4.643
			c-1.276-1.276-3.366-1.276-4.643,0l-3.293,3.294C103.234,358.18,103.234,360.269,104.511,361.545z"/>
		<path fill="#6ED1FF" d="M79.66,331.171c1.277,1.277,3.366,1.277,4.643,0l3.293-3.293c1.276-1.276,1.276-3.365,0-4.642
			s-3.365-1.276-4.642,0l-3.294,3.293C78.384,327.806,78.384,329.895,79.66,331.171z"/>
	</g>
	<g clip-path="url(#SVGID_2_)">
		<g>
			<path fill="#0065FF" d="M749.524,108.61L749.524,108.61c-1.297-1.296-1.297-3.417,0-4.714l92.042-92.042
				c1.296-1.296,3.417-1.296,4.714,0l0,0c1.296,1.296,1.296,3.418,0,4.714l-92.042,92.042
				C752.941,109.906,750.82,109.906,749.524,108.61z"/>
		</g>
		<path fill="#D6DCFF" d="M758.714,53.591L758.714,53.591c-1.918-1.918-1.918-5.056,0-6.974l20.554-20.554
			c1.918-1.917,5.055-1.917,6.973,0l0,0c1.918,1.917,1.918,5.056,0,6.974l-20.554,20.554
			C763.769,55.508,760.631,55.508,758.714,53.591z"/>
		<path fill="#0056FF" d="M701.57,20.926c-1.61-1.575-4.245-1.575-5.855,0l-17.259,16.889c-1.61,1.576-1.61,4.154,0,5.73
			c1.61,1.574,4.245,1.574,5.854,0l17.26-16.889C703.18,25.08,703.18,22.502,701.57,20.926z"/>
		<path fill="#D6DCFF" d="M634.963,153.488L634.963,153.488c-0.583-0.583-0.583-1.537,0-2.121l26.647-26.646
			c0.583-0.584,1.538-0.584,2.121,0l0,0c0.583,0.583,0.583,1.537,0,2.121l-26.646,26.646
			C636.501,154.072,635.547,154.072,634.963,153.488z"/>
		<path fill="#D6DCFF" d="M698.025,105.018L698.025,105.018c-0.583-0.583-0.583-1.537,0-2.121l26.647-26.646
			c0.583-0.584,1.538-0.584,2.121,0l0,0c0.583,0.583,0.583,1.537,0,2.121l-26.647,26.646
			C699.563,105.602,698.609,105.602,698.025,105.018z"/>
		<path fill="#6ED1FF" d="M885.721-32.159c-1.078-1.079-2.844-1.079-3.923,0l-11.566,11.566c-1.079,1.079-1.079,2.845,0,3.924
			c1.079,1.079,2.845,1.079,3.924,0l11.565-11.566C886.8-29.314,886.8-31.08,885.721-32.159z"/>
		<path fill="#19A3FF" d="M699.167,62.945c-1.079-1.079-2.845-1.079-3.924,0l-11.565,11.566c-1.079,1.078-1.079,2.844,0,3.923
			s2.845,1.079,3.924,0l11.565-11.565C700.246,65.79,700.246,64.024,699.167,62.945z"/>
		<path fill="#0065FF" d="M817.768-23.457c-1.277-1.276-3.366-1.276-4.643,0l-3.293,3.293c-1.276,1.276-1.276,3.365,0,4.642
			c1.276,1.276,3.365,1.276,4.642,0l3.294-3.293C819.044-20.091,819.044-22.18,817.768-23.457z"/>
		<path fill="#6ED1FF" d="M754.535,78.374c-1.277-1.276-3.366-1.276-4.643,0l-3.293,3.293c-1.276,1.276-1.276,3.366,0,4.642
			c1.276,1.277,3.365,1.277,4.642,0l3.294-3.293C755.812,81.739,755.812,79.65,754.535,78.374z"/>
		<path fill="#19A3FF" d="M717.027,38.469L717.027,38.469c-0.584-0.582-0.584-1.537,0-2.121l45.262-45.262
			c0.584-0.584,1.538-0.584,2.122,0l0,0c0.583,0.582,0.583,1.537,0,2.121l-45.263,45.262
			C718.564,39.053,717.61,39.053,717.027,38.469z"/>
		<path fill="#6ED1FF" d="M679.094,101.135c-1.276-1.277-3.365-1.277-4.643,0l-3.293,3.293c-1.276,1.276-1.276,3.365,0,4.642
			s3.365,1.276,4.643,0l3.293-3.293C680.37,104.5,680.37,102.41,679.094,101.135z"/>
		<path fill="#6ED1FF" d="M703.943,131.508c-1.276-1.276-3.365-1.276-4.642,0l-3.293,3.293c-1.276,1.277-1.276,3.365,0,4.643
			c1.276,1.276,3.365,1.276,4.642,0l3.293-3.293C705.221,134.873,705.221,132.785,703.943,131.508z"/>
	</g>
	<g clip-path="url(#SVGID_2_)">
		<g>
			<path fill="#0065FF" d="M441.065,87.464L441.065,87.464c-1.296-1.296-1.296-3.417,0-4.714l92.042-92.042
				c1.297-1.296,3.418-1.296,4.714,0l0,0c1.297,1.296,1.297,3.418,0,4.714L445.78,87.464
				C444.483,88.76,442.362,88.76,441.065,87.464z"/>
			<path fill="#0065FF" d="M368.923,156.143L368.923,156.143c-1.297-1.297-1.297-3.418,0-4.715l20.765-20.764
				c1.296-1.297,3.418-1.297,4.714,0l0,0c1.296,1.296,1.296,3.418,0,4.714l-20.765,20.765
				C372.341,157.439,370.219,157.439,368.923,156.143z"/>
		</g>
		<path fill="#D6DCFF" d="M450.255,32.444L450.255,32.444c-1.917-1.918-1.917-5.056,0-6.974L470.81,4.917
			c1.917-1.917,5.055-1.917,6.973,0l0,0c1.917,1.918,1.917,5.056,0,6.974l-20.555,20.554
			C455.311,34.361,452.173,34.361,450.255,32.444z"/>
		<path fill="#0056FF" d="M382.129-5.534c-1.113-1.113-2.936-1.113-4.049,0L366.146,6.4c-1.113,1.113-1.113,2.936,0,4.049
			s2.936,1.113,4.049,0l11.935-11.935C383.242-2.599,383.242-4.421,382.129-5.534z"/>
		<path fill="#D6DCFF" d="M326.505,132.342L326.505,132.342c-0.583-0.583-0.583-1.537,0-2.121l26.647-26.646
			c0.583-0.584,1.537-0.584,2.121,0l0,0c0.583,0.583,0.583,1.537,0,2.121l-26.647,26.646
			C328.043,132.926,327.088,132.926,326.505,132.342z"/>
		<path fill="#19A3FF" d="M389.567,83.871L389.567,83.871c-0.583-0.583-0.583-1.537,0-2.121l26.646-26.646
			c0.584-0.584,1.538-0.584,2.122,0l0,0c0.583,0.583,0.583,1.537,0,2.121l-26.647,26.646
			C391.105,84.455,390.15,84.455,389.567,83.871z"/>
		<path fill="#6ED1FF" d="M577.263-53.305c-1.079-1.079-2.845-1.079-3.924,0L561.773-41.74c-1.079,1.079-1.079,2.845,0,3.924
			s2.845,1.079,3.924,0l11.565-11.566C578.342-50.461,578.342-52.227,577.263-53.305z"/>
		<path fill="#19A3FF" d="M373.056,36.216c-1.079-1.079-2.845-1.079-3.924,0l-11.565,11.565c-1.079,1.079-1.079,2.845,0,3.924
			c1.078,1.079,2.844,1.079,3.923,0l11.566-11.566C374.135,39.061,374.135,37.295,373.056,36.216z"/>
		<path fill="#0065FF" d="M509.309-44.604c-1.276-1.276-3.365-1.276-4.642,0l-3.294,3.293c-1.276,1.276-1.276,3.365,0,4.642
			c1.277,1.276,3.366,1.276,4.643,0l3.293-3.293C510.585-41.238,510.585-43.327,509.309-44.604z"/>
		<path fill="#6ED1FF" d="M446.076,57.228c-1.276-1.276-3.365-1.276-4.642,0l-3.293,3.293c-1.277,1.276-1.277,3.366,0,4.642
			c1.276,1.277,3.365,1.277,4.642,0l3.293-3.293C447.353,60.593,447.353,58.504,446.076,57.228z"/>
		<path fill="#19A3FF" d="M408.568,17.322L408.568,17.322c-0.583-0.583-0.583-1.537,0-2.121l45.263-45.262
			c0.583-0.583,1.538-0.583,2.121,0l0,0c0.584,0.583,0.584,1.538,0,2.121l-45.263,45.262
			C410.106,17.906,409.152,17.906,408.568,17.322z"/>
		<path fill="#6ED1FF" d="M371.81,83.071c-1.276-1.276-3.365-1.276-4.642,0l-3.294,3.294c-1.276,1.275-1.276,3.365,0,4.642
			c1.277,1.276,3.366,1.276,4.643,0l3.293-3.294C373.086,86.438,373.086,84.348,371.81,83.071z"/>
		<path fill="#0056FF" d="M404.047,93.943c-1.277-1.277-3.366-1.277-4.643,0l-3.293,3.293c-1.276,1.276-1.276,3.365,0,4.643
			c1.276,1.275,3.365,1.275,4.642,0l3.294-3.293C405.323,97.309,405.323,95.22,404.047,93.943z"/>
	</g>
	<g clip-path="url(#SVGID_2_)">
		<g>
			<path fill="#0065FF" d="M782.821,485.81L782.821,485.81c-1.297-1.296-1.297-3.417,0-4.714l92.041-92.042
				c1.297-1.296,3.418-1.296,4.714,0l0,0c1.297,1.297,1.297,3.418,0,4.714l-92.041,92.042
				C786.238,487.106,784.117,487.106,782.821,485.81z"/>
			<path fill="#0065FF" d="M710.678,554.488L710.678,554.488c-1.297-1.297-1.297-3.418,0-4.714l20.765-20.765
				c1.296-1.297,3.418-1.297,4.714,0l0,0c1.297,1.296,1.297,3.417,0,4.714l-20.765,20.765
				C714.096,555.784,711.975,555.784,710.678,554.488z"/>
		</g>
		<path fill="#D6DCFF" d="M792.01,430.79L792.01,430.79c-1.917-1.918-1.917-5.056,0-6.973l20.555-20.555
			c1.917-1.917,5.055-1.917,6.973,0l0,0c1.918,1.918,1.918,5.056,0,6.974l-20.555,20.554
			C797.065,432.707,793.928,432.707,792.01,430.79z"/>
		<path fill="#0056FF" d="M723.884,392.812c-1.113-1.113-2.936-1.113-4.049,0L707.9,404.746c-1.113,1.113-1.113,2.936,0,4.049
			c1.114,1.113,2.936,1.113,4.049,0l11.935-11.935C724.997,395.747,724.997,393.925,723.884,392.812z"/>
		<path fill="#D6DCFF" d="M668.26,530.688L668.26,530.688c-0.583-0.584-0.583-1.538,0-2.122l26.647-26.646
			c0.583-0.584,1.538-0.584,2.121,0l0,0c0.583,0.583,0.583,1.538,0,2.121l-26.647,26.647
			C669.798,531.271,668.844,531.271,668.26,530.688z"/>
		<path fill="#19A3FF" d="M731.322,482.217L731.322,482.217c-0.583-0.583-0.583-1.537,0-2.121l26.646-26.646
			c0.584-0.584,1.539-0.584,2.122,0l0,0c0.583,0.583,0.583,1.538,0,2.121l-26.647,26.646
			C732.86,482.801,731.905,482.801,731.322,482.217z"/>
		<path fill="#6ED1FF" d="M919.018,345.04c-1.079-1.079-2.845-1.079-3.924,0l-11.565,11.566c-1.079,1.079-1.079,2.845,0,3.923
			c1.079,1.079,2.845,1.079,3.924,0l11.565-11.565C920.097,347.885,920.097,346.119,919.018,345.04z"/>
		<path fill="#19A3FF" d="M714.811,434.562c-1.079-1.079-2.845-1.079-3.924,0l-11.565,11.565c-1.079,1.079-1.079,2.845,0,3.924
			s2.845,1.079,3.923,0l11.566-11.565C715.89,437.406,715.89,435.641,714.811,434.562z"/>
		<path fill="#0065FF" d="M851.063,353.742c-1.276-1.276-3.365-1.276-4.642,0l-3.293,3.293c-1.277,1.277-1.277,3.366,0,4.643
			c1.276,1.276,3.365,1.276,4.642,0l3.293-3.293C852.34,357.108,852.34,355.02,851.063,353.742z"/>
		<path fill="#6ED1FF" d="M787.831,455.573c-1.276-1.276-3.365-1.276-4.642,0l-3.293,3.293c-1.277,1.276-1.277,3.366,0,4.643
			c1.276,1.276,3.365,1.276,4.642,0l3.293-3.293C789.107,458.938,789.107,456.85,787.831,455.573z"/>
		<path fill="#19A3FF" d="M750.323,415.669L750.323,415.669c-0.583-0.584-0.583-1.538,0-2.122l45.263-45.262
			c0.584-0.584,1.538-0.584,2.121,0l0,0c0.584,0.583,0.584,1.537,0,2.121l-45.262,45.263
			C751.861,416.252,750.907,416.252,750.323,415.669z"/>
		<path fill="#6ED1FF" d="M713.564,481.417c-1.276-1.276-3.365-1.276-4.642,0l-3.293,3.294c-1.277,1.276-1.277,3.365,0,4.642
			c1.276,1.276,3.365,1.276,4.642,0l3.293-3.293C714.842,484.783,714.842,482.694,713.564,481.417z"/>
		<path fill="#0056FF" d="M745.802,492.289c-1.276-1.276-3.366-1.276-4.643,0l-3.293,3.293c-1.276,1.276-1.276,3.365,0,4.643
			c1.276,1.276,3.365,1.276,4.643,0l3.293-3.294C747.078,495.654,747.078,493.565,745.802,492.289z"/>
	</g>
	<g clip-path="url(#SVGID_2_)">
		<path fill="#D6DCFF" d="M547.213,91.46L547.213,91.46c1.918,1.917,1.918,5.056,0,6.974l-20.554,20.553
			c-1.918,1.918-5.056,1.918-6.973,0l0,0c-1.918-1.917-1.918-5.055,0-6.973L540.24,91.46
			C542.158,89.543,545.296,89.543,547.213,91.46z"/>
		<path fill="#0056FF" d="M616.809,133.175c1.113,1.113,2.936,1.113,4.049,0l11.934-11.935c1.114-1.113,1.114-2.936,0-4.049
			c-1.113-1.113-2.935-1.113-4.048,0l-11.935,11.935C615.695,130.239,615.695,132.062,616.809,133.175z"/>
		<path fill="#D6DCFF" d="M672.433-4.701L672.433-4.701c0.583,0.583,0.583,1.537,0,2.121l-26.647,26.646
			c-0.583,0.584-1.538,0.584-2.121,0l0,0c-0.583-0.583-0.583-1.537,0-2.121l26.646-26.646
			C670.895-5.285,671.849-5.285,672.433-4.701z"/>
		<path fill="#19A3FF" d="M606.576,34.327L606.576,34.327c0.584,0.583,0.584,1.538,0,2.122L579.93,63.096
			c-0.583,0.583-1.538,0.583-2.121,0l0,0c-0.584-0.584-0.584-1.538,0-2.121l26.646-26.647
			C605.039,33.744,605.993,33.744,606.576,34.327z"/>
		<path fill="#6ED1FF" d="M479.076,117.625c1.078,1.079,2.844,1.079,3.923,0l11.566-11.566c1.079-1.078,1.079-2.844,0-3.923
			s-2.845-1.079-3.924,0l-11.565,11.565C477.997,114.78,477.997,116.546,479.076,117.625z"/>
		<path fill="#19A3FF" d="M625.882,91.425c1.079,1.079,2.845,1.079,3.924,0l11.565-11.565c1.079-1.079,1.079-2.845,0-3.924
			s-2.845-1.079-3.924,0l-11.565,11.566C624.803,88.58,624.803,90.346,625.882,91.425z"/>
		<path fill="#0065FF" d="M572.816,168.615c1.276,1.276,3.365,1.276,4.642,0l3.293-3.293c1.277-1.277,1.277-3.366,0-4.643
			c-1.276-1.276-3.365-1.276-4.642,0l-3.293,3.293C571.539,165.25,571.539,167.338,572.816,168.615z"/>
		<path fill="#6ED1FF" d="M524.557,52.248c1.277,1.276,3.366,1.276,4.643,0l3.293-3.293c1.276-1.277,1.276-3.366,0-4.643
			s-3.365-1.276-4.642,0l-3.294,3.293C523.28,48.883,523.28,50.971,524.557,52.248z"/>
		<path fill="#19A3FF" d="M590.369,110.318L590.369,110.318c0.583,0.582,0.583,1.537,0,2.121l-45.264,45.262
			c-0.583,0.584-1.537,0.584-2.121,0l0,0c-0.583-0.583-0.583-1.537,0-2.121l45.263-45.262
			C588.831,109.734,589.785,109.734,590.369,110.318z"/>
		<path fill="#6ED1FF" d="M627.127,44.569c1.277,1.276,3.366,1.276,4.643,0l3.293-3.294c1.277-1.275,1.277-3.365,0-4.642
			c-1.276-1.276-3.365-1.276-4.642,0l-3.294,3.293C625.851,41.203,625.851,43.293,627.127,44.569z"/>
		<path fill="#0056FF" d="M586.839,10.607c1.276,1.275,3.365,1.275,4.642,0l3.293-3.293c1.277-1.277,1.277-3.366,0-4.643
			c-1.276-1.277-3.365-1.277-4.642,0l-3.293,3.293C585.563,7.242,585.563,9.33,586.839,10.607z"/>
	</g>
	<g clip-path="url(#SVGID_2_)">
		<path fill="#D6DCFF" d="M83.469,482.096L83.469,482.096c1.918,1.918,1.918,5.056,0,6.974l-20.554,20.554
			c-1.917,1.917-5.056,1.917-6.973,0l0,0c-1.918-1.918-1.918-5.056,0-6.973l20.554-20.555
			C78.414,480.179,81.552,480.179,83.469,482.096z"/>
		<path fill="#0056FF" d="M153.064,523.811c1.113,1.113,2.936,1.113,4.049,0l11.935-11.935c1.113-1.113,1.113-2.936,0-4.049
			c-1.114-1.113-2.936-1.113-4.049,0l-11.935,11.935C151.951,520.875,151.951,522.697,153.064,523.811z"/>
		<path fill="#D6DCFF" d="M208.688,385.935L208.688,385.935c0.583,0.583,0.583,1.538,0,2.121l-26.647,26.646
			c-0.583,0.584-1.538,0.584-2.121,0l0,0c-0.583-0.583-0.583-1.537,0-2.121l26.646-26.646
			C207.15,385.351,208.104,385.351,208.688,385.935z"/>
		<path fill="#19A3FF" d="M142.833,424.963L142.833,424.963c0.583,0.584,0.583,1.538,0,2.122l-26.647,26.646
			c-0.583,0.583-1.538,0.583-2.121,0l0,0c-0.584-0.583-0.584-1.538,0-2.121l26.646-26.647
			C141.295,424.38,142.249,424.38,142.833,424.963z"/>
		<path fill="#6ED1FF" d="M15.332,508.261c1.079,1.079,2.844,1.079,3.923,0l11.566-11.565c1.079-1.079,1.079-2.845,0-3.924
			s-2.845-1.079-3.924,0l-11.565,11.565C14.253,505.416,14.253,507.182,15.332,508.261z"/>
		<path fill="#19A3FF" d="M162.138,482.061c1.079,1.079,2.845,1.079,3.924,0l11.565-11.565c1.079-1.079,1.079-2.845,0-3.924
			s-2.845-1.079-3.924,0l-11.565,11.566C161.059,479.216,161.059,480.981,162.138,482.061z"/>
		<path fill="#0065FF" d="M109.072,559.251c1.276,1.276,3.365,1.276,4.642,0l3.293-3.293c1.277-1.276,1.277-3.366,0-4.643
			c-1.276-1.276-3.365-1.276-4.642,0l-3.293,3.294C107.796,555.886,107.796,557.975,109.072,559.251z"/>
		<path fill="#6ED1FF" d="M60.813,442.884c1.277,1.276,3.366,1.276,4.643,0l3.293-3.293c1.276-1.276,1.276-3.366,0-4.643
			s-3.365-1.276-4.642,0l-3.294,3.293C59.536,439.519,59.536,441.607,60.813,442.884z"/>
		<path fill="#19A3FF" d="M126.625,500.954L126.625,500.954c0.583,0.583,0.583,1.538,0,2.121l-45.263,45.263
			c-0.584,0.583-1.538,0.583-2.122,0l0,0c-0.583-0.584-0.583-1.538,0-2.121l45.263-45.263
			C125.087,500.37,126.041,500.37,126.625,500.954z"/>
		<path fill="#6ED1FF" d="M163.384,435.205c1.276,1.276,3.365,1.276,4.642,0l3.293-3.293c1.277-1.276,1.277-3.365,0-4.643
			c-1.276-1.276-3.365-1.276-4.642,0l-3.293,3.294C162.106,431.84,162.106,433.929,163.384,435.205z"/>
		<path fill="#0056FF" d="M123.095,401.243c1.276,1.276,3.365,1.276,4.642,0l3.293-3.293c1.277-1.277,1.277-3.366,0-4.643
			c-1.276-1.276-3.365-1.276-4.642,0l-3.293,3.293C121.818,397.877,121.818,399.967,123.095,401.243z"/>
	</g>
</g>
</svg>
