<?xml version="1.0" encoding="utf-8"?>
<!-- Generator: Adobe Illustrator 16.0.0, SVG Export Plug-In . SVG Version: 6.00 Build 0)  -->
<!DOCTYPE svg PUBLIC "-//W3C//DTD SVG 1.1//EN" "http://www.w3.org/Graphics/SVG/1.1/DTD/svg11.dtd">
<svg version="1.1" id="Layer_1" xmlns="http://www.w3.org/2000/svg" xmlns:xlink="http://www.w3.org/1999/xlink" x="0px" y="0px"
	 width="384px" height="94.667px" viewBox="0 0 384 94.667" enable-background="new 0 0 384 94.667" xml:space="preserve">
<polyline fill="#209CEE" points="321,-43.333 345.562,-43.333 333.281,-26.083 "/>
<path fill="#209CEE" d="M356,163.667c0,6.627-3.743,12-11.309,12h-200.99c-7.566,0-14.701-5.373-14.701-12v-42
	c0-6.627,7.135-12,14.701-12h200.99c7.565,0,11.309,5.373,11.309,12V163.667z"/>
<g>
	<path fill="#FFFFFF" d="M154.1,137.134h0.216c1.104-2.111,2.352-3.695,3.744-4.752c1.392-1.055,3.168-1.584,5.328-1.584
		c1.008,0,1.775,0.097,2.304,0.288v8.568h-0.216c-3.216-0.336-5.857,0.359-7.92,2.088c-2.064,1.728-3.096,4.536-3.096,8.424v18
		h-9.792v-36.936h9.432V137.134z"/>
	<path fill="#FFFFFF" d="M192.116,168.167c-0.288-0.384-0.529-0.96-0.72-1.728c-0.192-0.768-0.336-1.56-0.432-2.376h-0.144
		c-0.48,0.72-1.021,1.38-1.62,1.979c-0.601,0.601-1.321,1.116-2.16,1.548c-0.84,0.433-1.836,0.78-2.988,1.044
		c-1.152,0.264-2.52,0.396-4.104,0.396c-3.792,0-6.888-0.96-9.288-2.88c-2.4-1.92-3.6-4.728-3.6-8.425
		c0-2.016,0.383-3.719,1.152-5.111c0.767-1.392,1.824-2.544,3.168-3.456c1.343-0.911,2.916-1.62,4.716-2.124
		c1.8-0.504,3.732-0.9,5.796-1.188c3.071-0.432,5.328-0.888,6.768-1.368c1.44-0.479,2.16-1.415,2.16-2.808
		c0-1.343-0.516-2.412-1.548-3.204c-1.033-0.792-2.581-1.188-4.644-1.188c-2.304,0-4.032,0.421-5.184,1.26
		c-1.152,0.84-1.8,2.148-1.944,3.924h-8.712c0.047-1.631,0.407-3.179,1.08-4.644c0.672-1.464,1.656-2.748,2.952-3.853
		c1.296-1.104,2.927-1.991,4.896-2.664c1.968-0.671,4.295-1.008,6.984-1.008c5.52,0,9.492,1.188,11.916,3.564
		c2.423,2.376,3.636,5.724,3.636,10.044v18.792c0,2.784,0.432,4.488,1.296,5.111v0.36H192.116z M182.324,162.191
		c1.392,0,2.628-0.204,3.708-0.612c1.08-0.407,1.991-0.937,2.736-1.584c0.744-0.648,1.307-1.392,1.692-2.232
		c0.384-0.839,0.576-1.715,0.576-2.628v-5.544c-0.864,0.529-1.908,0.948-3.132,1.26c-1.224,0.313-2.46,0.612-3.708,0.9
		c-2.592,0.576-4.512,1.249-5.76,2.016c-1.249,0.769-1.872,2.017-1.872,3.744c0,1.729,0.527,2.941,1.584,3.637
		C179.203,161.843,180.596,162.191,182.324,162.191z"/>
	<path fill="#FFFFFF" d="M216.02,136.27h0.215c1.248-2.016,2.748-3.527,4.5-4.535c1.752-1.009,3.9-1.513,6.444-1.513
		c1.919,0,3.659,0.349,5.22,1.044c1.56,0.696,2.892,1.656,3.996,2.881c1.104,1.224,1.968,2.676,2.592,4.355
		c0.624,1.681,0.937,3.528,0.937,5.544v24.12h-9.792v-22.68c0-2.017-0.553-3.647-1.656-4.896c-1.104-1.247-2.688-1.872-4.752-1.872
		c-2.16,0-3.949,0.781-5.363,2.34c-1.417,1.561-2.125,3.612-2.125,6.156v20.952h-9.791v-36.936h9.576V136.27z"/>
	<path fill="#FFFFFF" d="M259.939,151.319l-4.248,4.392v12.456h-9.721v-51.48h9.721v28.513l13.104-13.968h11.736l-13.608,14.039
		l15.264,22.896h-11.88L259.939,151.319z"/>
	<path fill="#FFFFFF" d="M299.178,169.247c-5.376,0-9.528-1.188-12.455-3.564c-2.929-2.376-4.537-5.531-4.824-9.468h9.072
		c0.335,2.16,1.211,3.721,2.627,4.68c1.416,0.961,3.229,1.44,5.437,1.44c2.16,0,3.827-0.384,5.004-1.152
		c1.176-0.767,1.765-1.8,1.765-3.096c0-0.864-0.277-1.56-0.828-2.088c-0.553-0.527-1.273-0.96-2.16-1.296
		c-0.889-0.335-1.92-0.612-3.096-0.828c-1.178-0.216-2.389-0.443-3.637-0.684c-1.681-0.336-3.301-0.721-4.859-1.152
		c-1.561-0.432-2.953-1.056-4.176-1.872c-1.225-0.815-2.209-1.872-2.953-3.168s-1.115-2.952-1.115-4.968
		c0-2.017,0.383-3.756,1.152-5.221c0.767-1.463,1.836-2.688,3.203-3.672c1.368-0.983,2.963-1.715,4.788-2.195
		c1.823-0.479,3.792-0.721,5.904-0.721c4.896,0,8.663,1.105,11.304,3.313c2.639,2.208,4.151,5.184,4.536,8.928h-8.856
		c-0.24-2.016-0.961-3.42-2.16-4.212s-2.855-1.188-4.967-1.188c-1.921,0-3.457,0.349-4.608,1.044
		c-1.152,0.696-1.728,1.717-1.728,3.06c0,0.816,0.287,1.452,0.863,1.908c0.576,0.457,1.332,0.84,2.268,1.151
		c0.937,0.313,2.017,0.565,3.24,0.757c1.225,0.192,2.484,0.432,3.78,0.72c1.536,0.336,3.083,0.72,4.644,1.152
		c1.56,0.432,2.964,1.068,4.213,1.907c1.247,0.841,2.255,1.944,3.023,3.313c0.768,1.368,1.152,3.132,1.152,5.292
		c0,1.872-0.385,3.54-1.152,5.004c-0.769,1.465-1.836,2.7-3.204,3.708s-3,1.789-4.896,2.34
		C303.582,168.97,301.482,169.247,299.178,169.247z"/>
</g>
<g>
	<path d="M53.496,168.167v-4.32H53.28c-1.249,1.681-2.676,2.988-4.284,3.924c-1.609,0.937-3.708,1.404-6.3,1.404
		c-4.128,0-7.296-1.199-9.504-3.6c-2.208-2.399-3.312-5.64-3.312-9.72v-24.624h9.72v22.968c0,2.16,0.492,3.815,1.476,4.968
		c0.983,1.152,2.531,1.728,4.644,1.728c2.304,0,4.115-0.779,5.436-2.34c1.32-1.559,1.98-3.563,1.98-6.012v-21.312h9.792v36.936
		H53.496z"/>
	<path d="M66.384,131.231h9.72l4.464,17.136c0.191,0.769,0.396,1.561,0.612,2.376c0.216,0.816,0.396,1.561,0.54,2.231
		c0.191,0.817,0.36,1.584,0.504,2.305h0.144c0.144-0.768,0.312-1.56,0.504-2.376c0.144-0.672,0.299-1.416,0.468-2.232
		c0.167-0.815,0.371-1.607,0.612-2.376l4.608-17.063h8.352l4.824,17.063c0.191,0.816,0.383,1.633,0.576,2.448
		c0.191,0.816,0.384,1.561,0.576,2.231c0.191,0.817,0.384,1.584,0.576,2.305h0.144c0.144-0.721,0.312-1.487,0.504-2.305
		c0.288-1.439,0.671-2.976,1.152-4.607l4.68-17.136h9.504l-11.016,36.936h-8.928l-4.896-18.144
		c-0.241-0.721-0.457-1.464-0.648-2.232c-0.192-0.767-0.36-1.464-0.504-2.088c-0.192-0.72-0.36-1.415-0.504-2.088h-0.144
		c-0.192,0.673-0.385,1.368-0.576,2.088c-0.192,0.624-0.385,1.321-0.576,2.088c-0.192,0.769-0.385,1.512-0.576,2.232l-5.04,18.144
		h-8.856L66.384,131.231z"/>
</g>
<polyline fill="#FFFFFF" points="324,138.667 348,138.667 336,155.917 "/>
<g>
	<path d="M57.496-16.667v-4.32H57.28c-1.249,1.681-2.676,2.988-4.284,3.924c-1.609,0.937-3.708,1.404-6.3,1.404
		c-4.128,0-7.296-1.199-9.504-3.6c-2.208-2.399-3.312-5.64-3.312-9.72v-24.624h9.72v22.968c0,2.16,0.492,3.815,1.476,4.968
		c0.983,1.152,2.531,1.728,4.644,1.728c2.304,0,4.115-0.779,5.436-2.34c1.32-1.559,1.98-3.563,1.98-6.012v-21.312h9.792v36.936
		H57.496z"/>
	<path d="M70.384-53.602h9.72l4.464,17.136c0.191,0.769,0.396,1.561,0.612,2.376c0.216,0.816,0.396,1.561,0.54,2.231
		c0.191,0.817,0.36,1.584,0.504,2.305h0.144c0.144-0.768,0.312-1.56,0.504-2.376c0.144-0.672,0.299-1.416,0.468-2.232
		c0.167-0.815,0.371-1.607,0.612-2.376l4.608-17.063h8.352l4.824,17.063c0.191,0.816,0.383,1.633,0.576,2.448
		c0.191,0.816,0.384,1.561,0.576,2.231c0.191,0.817,0.384,1.584,0.576,2.305h0.144c0.144-0.721,0.312-1.487,0.504-2.305
		c0.288-1.439,0.671-2.976,1.152-4.607l4.68-17.136h9.504l-11.016,36.936h-8.928L98.608-34.81c-0.241-0.721-0.457-1.464-0.648-2.232
		c-0.192-0.768-0.36-1.464-0.504-2.088c-0.192-0.72-0.36-1.415-0.504-2.088h-0.144c-0.192,0.673-0.385,1.368-0.576,2.088
		c-0.192,0.624-0.385,1.32-0.576,2.088c-0.192,0.769-0.385,1.512-0.576,2.232l-5.04,18.144h-8.856L70.384-53.602z"/>
	<path fill="#209CEE" d="M148.432-47.699h0.216c1.104-2.111,2.352-3.695,3.744-4.752c1.392-1.055,3.168-1.584,5.328-1.584
		c1.008,0,1.775,0.097,2.304,0.288v8.568h-0.216c-3.216-0.336-5.857,0.359-7.92,2.088c-2.064,1.728-3.096,4.536-3.096,8.424v18H139
		v-36.936h9.432V-47.699z"/>
	<path fill="#209CEE" d="M186.447-16.667c-0.288-0.384-0.529-0.96-0.72-1.728c-0.192-0.768-0.336-1.56-0.432-2.376h-0.144
		c-0.48,0.72-1.021,1.38-1.62,1.979c-0.601,0.601-1.321,1.116-2.16,1.548c-0.84,0.433-1.836,0.78-2.988,1.044
		c-1.152,0.264-2.52,0.396-4.104,0.396c-3.792,0-6.888-0.96-9.288-2.88c-2.4-1.92-3.6-4.728-3.6-8.425
		c0-2.016,0.383-3.719,1.152-5.111c0.767-1.392,1.824-2.544,3.168-3.456c1.343-0.911,2.916-1.62,4.716-2.124
		c1.8-0.504,3.732-0.9,5.796-1.188c3.071-0.432,5.328-0.888,6.768-1.368c1.44-0.479,2.16-1.415,2.16-2.808
		c0-1.343-0.516-2.412-1.548-3.204c-1.033-0.792-2.581-1.188-4.644-1.188c-2.304,0-4.032,0.421-5.184,1.26
		c-1.152,0.84-1.8,2.148-1.944,3.924h-8.712c0.047-1.631,0.407-3.179,1.08-4.644c0.672-1.464,1.656-2.748,2.952-3.853
		c1.296-1.104,2.927-1.991,4.896-2.664c1.968-0.671,4.295-1.008,6.984-1.008c5.52,0,9.492,1.188,11.916,3.564
		c2.423,2.376,3.636,5.724,3.636,10.044v18.792c0,2.784,0.432,4.488,1.296,5.111v0.36H186.447z M176.655-22.642
		c1.392,0,2.628-0.204,3.708-0.612c1.08-0.407,1.991-0.937,2.736-1.584c0.744-0.648,1.307-1.392,1.692-2.232
		c0.384-0.839,0.576-1.715,0.576-2.628v-5.544c-0.864,0.529-1.908,0.948-3.132,1.26c-1.224,0.313-2.46,0.612-3.708,0.9
		c-2.592,0.576-4.512,1.249-5.76,2.016c-1.249,0.769-1.872,2.017-1.872,3.744c0,1.729,0.527,2.941,1.584,3.637
		C173.535-22.99,174.927-22.642,176.655-22.642z"/>
	<path fill="#209CEE" d="M210.351-48.563h0.216c1.248-2.016,2.747-3.527,4.5-4.535c1.752-1.009,3.899-1.513,6.444-1.513
		c1.919,0,3.659,0.349,5.22,1.044c1.56,0.696,2.892,1.656,3.996,2.881c1.104,1.224,1.968,2.676,2.592,4.355
		c0.623,1.681,0.937,3.528,0.937,5.544v24.12h-9.792v-22.68c0-2.017-0.553-3.647-1.656-4.896c-1.104-1.247-2.688-1.872-4.752-1.872
		c-2.16,0-3.949,0.781-5.364,2.34c-1.417,1.561-2.124,3.612-2.124,6.156v20.952h-9.792v-36.936h9.576V-48.563z"/>
	<path fill="#209CEE" d="M254.271-33.514l-4.248,4.392v12.456h-9.72v-51.48h9.72v28.512l13.104-13.968h11.735l-13.607,14.039
		l15.264,22.896h-11.88L254.271-33.514z"/>
	<path fill="#209CEE" d="M293.509-15.586c-5.376,0-9.528-1.188-12.455-3.564c-2.929-2.376-4.536-5.531-4.824-9.468h9.071
		c0.336,2.16,1.212,3.721,2.629,4.68c1.415,0.961,3.228,1.44,5.436,1.44c2.16,0,3.827-0.384,5.004-1.152
		c1.176-0.767,1.764-1.8,1.764-3.096c0-0.864-0.276-1.56-0.827-2.088c-0.553-0.527-1.272-0.96-2.16-1.296
		c-0.889-0.335-1.921-0.612-3.097-0.828c-1.177-0.216-2.388-0.443-3.636-0.684c-1.681-0.336-3.301-0.721-4.859-1.152
		c-1.561-0.432-2.952-1.056-4.177-1.872c-1.224-0.815-2.208-1.872-2.952-3.168s-1.115-2.952-1.115-4.968
		c0-2.017,0.383-3.756,1.151-5.221c0.768-1.463,1.836-2.688,3.204-3.672c1.368-0.983,2.964-1.715,4.788-2.195
		c1.824-0.479,3.791-0.721,5.904-0.721c4.896,0,8.663,1.105,11.304,3.313c2.64,2.208,4.151,5.184,4.536,8.928h-8.856
		c-0.24-2.016-0.96-3.42-2.159-4.212c-1.201-0.792-2.856-1.188-4.969-1.188c-1.92,0-3.456,0.349-4.607,1.044
		c-1.152,0.696-1.729,1.717-1.729,3.06c0,0.816,0.288,1.452,0.864,1.908c0.576,0.457,1.332,0.84,2.268,1.151
		c0.937,0.313,2.017,0.565,3.24,0.757c1.225,0.192,2.484,0.432,3.78,0.72c1.535,0.336,3.084,0.72,4.644,1.152
		c1.56,0.432,2.964,1.068,4.212,1.907c1.248,0.841,2.256,1.944,3.024,3.313c0.768,1.368,1.152,3.132,1.152,5.292
		c0,1.872-0.385,3.54-1.152,5.004c-0.769,1.465-1.836,2.7-3.204,3.708s-3,1.789-4.896,2.34
		C297.912-15.863,295.813-15.586,293.509-15.586z"/>
</g>
<path fill="#209CEE" d="M370,66.333c0,6.627-3.317,12.333-11.033,12.333H153.992c-7.716,0-14.992-5.706-14.992-12.333v-42
	c0-6.627,7.276-11.667,14.992-11.667h204.975c7.716,0,11.033,5.04,11.033,11.667V66.333z"/>
<g>
	<path fill="#FFFFFF" d="M152.893,48.215c0-5.185-0.144-8.568-0.288-11.593h9.433l0.36,6.48h0.288
		c1.8-5.112,6.121-7.272,9.505-7.272c1.008,0,1.512,0,2.304,0.144v10.297c-0.792-0.144-1.728-0.288-2.952-0.288
		c-4.032,0-6.769,2.16-7.489,5.545c-0.144,0.72-0.216,1.584-0.216,2.448v17.857h-10.945V48.215z"/>
	<path fill="#FFFFFF" d="M199.479,71.833l-0.648-3.528h-0.216c-2.304,2.809-5.904,4.32-10.081,4.32
		c-7.129,0-11.377-5.185-11.377-10.801c0-9.145,8.208-13.537,20.666-13.465v-0.505c0-1.872-1.008-4.536-6.409-4.536
		c-3.6,0-7.417,1.225-9.721,2.664l-2.016-7.057c2.448-1.368,7.272-3.096,13.681-3.096c11.737,0,15.482,6.912,15.482,15.193v12.241
		c0,3.384,0.144,6.624,0.504,8.568H199.479z M198.182,55.2c-5.76-0.071-10.225,1.297-10.225,5.545c0,2.809,1.872,4.177,4.32,4.177
		c2.736,0,4.968-1.801,5.688-4.033c0.144-0.576,0.216-1.224,0.216-1.872V55.2z"/>
	<path fill="#FFFFFF" d="M217.477,47.855c0-4.392-0.145-8.137-0.288-11.232h9.505l0.504,4.824h0.216
		c1.44-2.232,5.04-5.616,10.873-5.616c7.2,0,12.601,4.752,12.601,15.121v20.882h-10.944V52.32c0-4.536-1.584-7.633-5.544-7.633
		c-3.025,0-4.825,2.088-5.545,4.104c-0.288,0.648-0.432,1.729-0.432,2.736v20.306h-10.945V47.855z"/>
	<path fill="#FFFFFF" d="M270.613,51.456h0.145c0.792-1.44,1.656-2.88,2.52-4.248l7.129-10.585h13.178l-12.602,14.257l14.401,20.954
		h-13.466l-8.496-14.474l-2.809,3.457v11.017h-10.944V20.709h10.944V51.456z"/>
	<path fill="#FFFFFF" d="M298.62,62.256c2.017,1.225,6.192,2.665,9.433,2.665c3.313,0,4.681-1.152,4.681-2.953
		c0-1.8-1.08-2.664-5.185-4.032c-7.272-2.448-10.08-6.408-10.009-10.585c0-6.553,5.616-11.521,14.329-11.521
		c4.104,0,7.777,0.936,9.938,2.016l-1.945,7.561c-1.584-0.863-4.607-2.016-7.632-2.016c-2.665,0-4.177,1.08-4.177,2.88
		c0,1.656,1.368,2.521,5.689,4.032c6.695,2.305,9.504,5.688,9.576,10.873c0,6.553-5.185,11.377-15.266,11.377
		c-4.607,0-8.713-1.008-11.377-2.448L298.62,62.256z"/>
</g>
<path fill="#209CEE" d="M356,163.667c0,6.627-3.743,12-11.309,12h-200.99c-7.566,0-14.701-5.373-14.701-12v-42
	c0-6.627,7.135-12,14.701-12h200.99c7.565,0,11.309,5.373,11.309,12V163.667z"/>
<g>
	<path fill="#FFFFFF" d="M154.1,137.134h0.216c1.104-2.111,2.352-3.695,3.744-4.752c1.392-1.055,3.168-1.584,5.328-1.584
		c1.008,0,1.775,0.097,2.304,0.288v8.568h-0.216c-3.216-0.336-5.857,0.359-7.92,2.088c-2.064,1.728-3.096,4.536-3.096,8.424v18
		h-9.792v-36.936h9.432V137.134z"/>
	<path fill="#FFFFFF" d="M192.116,168.167c-0.288-0.384-0.529-0.96-0.72-1.728c-0.192-0.768-0.336-1.56-0.432-2.376h-0.144
		c-0.48,0.72-1.021,1.38-1.62,1.979c-0.601,0.601-1.321,1.116-2.16,1.548c-0.84,0.433-1.836,0.78-2.988,1.044
		c-1.152,0.264-2.52,0.396-4.104,0.396c-3.792,0-6.888-0.96-9.288-2.88c-2.4-1.92-3.6-4.728-3.6-8.425
		c0-2.016,0.383-3.719,1.152-5.111c0.767-1.392,1.824-2.544,3.168-3.456c1.343-0.911,2.916-1.62,4.716-2.124
		c1.8-0.504,3.732-0.9,5.796-1.188c3.071-0.432,5.328-0.888,6.768-1.368c1.44-0.479,2.16-1.415,2.16-2.808
		c0-1.343-0.516-2.412-1.548-3.204c-1.033-0.792-2.581-1.188-4.644-1.188c-2.304,0-4.032,0.421-5.184,1.26
		c-1.152,0.84-1.8,2.148-1.944,3.924h-8.712c0.047-1.631,0.407-3.179,1.08-4.644c0.672-1.464,1.656-2.748,2.952-3.853
		c1.296-1.104,2.927-1.991,4.896-2.664c1.968-0.671,4.295-1.008,6.984-1.008c5.52,0,9.492,1.188,11.916,3.564
		c2.423,2.376,3.636,5.724,3.636,10.044v18.792c0,2.784,0.432,4.488,1.296,5.111v0.36H192.116z M182.324,162.191
		c1.392,0,2.628-0.204,3.708-0.612c1.08-0.407,1.991-0.937,2.736-1.584c0.744-0.648,1.307-1.392,1.692-2.232
		c0.384-0.839,0.576-1.715,0.576-2.628v-5.544c-0.864,0.529-1.908,0.948-3.132,1.26c-1.224,0.313-2.46,0.612-3.708,0.9
		c-2.592,0.576-4.512,1.249-5.76,2.016c-1.249,0.769-1.872,2.017-1.872,3.744c0,1.729,0.527,2.941,1.584,3.637
		C179.203,161.843,180.596,162.191,182.324,162.191z"/>
	<path fill="#FFFFFF" d="M216.02,136.27h0.215c1.248-2.016,2.748-3.527,4.5-4.535c1.752-1.009,3.9-1.513,6.444-1.513
		c1.919,0,3.659,0.349,5.22,1.044c1.56,0.696,2.892,1.656,3.996,2.881c1.104,1.224,1.968,2.676,2.592,4.355
		c0.624,1.681,0.937,3.528,0.937,5.544v24.12h-9.792v-22.68c0-2.017-0.553-3.647-1.656-4.896c-1.104-1.247-2.688-1.872-4.752-1.872
		c-2.16,0-3.949,0.781-5.363,2.34c-1.417,1.561-2.125,3.612-2.125,6.156v20.952h-9.791v-36.936h9.576V136.27z"/>
	<path fill="#FFFFFF" d="M259.939,151.319l-4.248,4.392v12.456h-9.721v-51.48h9.721v28.513l13.104-13.968h11.736l-13.608,14.039
		l15.264,22.896h-11.88L259.939,151.319z"/>
	<path fill="#FFFFFF" d="M299.178,169.247c-5.376,0-9.528-1.188-12.455-3.564c-2.929-2.376-4.537-5.531-4.824-9.468h9.072
		c0.335,2.16,1.211,3.721,2.627,4.68c1.416,0.961,3.229,1.44,5.437,1.44c2.16,0,3.827-0.384,5.004-1.152
		c1.176-0.767,1.765-1.8,1.765-3.096c0-0.864-0.277-1.56-0.828-2.088c-0.553-0.527-1.273-0.96-2.16-1.296
		c-0.889-0.335-1.92-0.612-3.096-0.828c-1.178-0.216-2.389-0.443-3.637-0.684c-1.681-0.336-3.301-0.721-4.859-1.152
		c-1.561-0.432-2.953-1.056-4.176-1.872c-1.225-0.815-2.209-1.872-2.953-3.168s-1.115-2.952-1.115-4.968
		c0-2.017,0.383-3.756,1.152-5.221c0.767-1.463,1.836-2.688,3.203-3.672c1.368-0.983,2.963-1.715,4.788-2.195
		c1.823-0.479,3.792-0.721,5.904-0.721c4.896,0,8.663,1.105,11.304,3.313c2.639,2.208,4.151,5.184,4.536,8.928h-8.856
		c-0.24-2.016-0.961-3.42-2.16-4.212s-2.855-1.188-4.967-1.188c-1.921,0-3.457,0.349-4.608,1.044
		c-1.152,0.696-1.728,1.717-1.728,3.06c0,0.816,0.287,1.452,0.863,1.908c0.576,0.457,1.332,0.84,2.268,1.151
		c0.937,0.313,2.017,0.565,3.24,0.757c1.225,0.192,2.484,0.432,3.78,0.72c1.536,0.336,3.083,0.72,4.644,1.152
		c1.56,0.432,2.964,1.068,4.213,1.907c1.247,0.841,2.255,1.944,3.023,3.313c0.768,1.368,1.152,3.132,1.152,5.292
		c0,1.872-0.385,3.54-1.152,5.004c-0.769,1.465-1.836,2.7-3.204,3.708s-3,1.789-4.896,2.34
		C303.582,168.97,301.482,169.247,299.178,169.247z"/>
</g>
<g>
	<path d="M53.496,168.167v-4.32H53.28c-1.249,1.681-2.676,2.988-4.284,3.924c-1.609,0.937-3.708,1.404-6.3,1.404
		c-4.128,0-7.296-1.199-9.504-3.6c-2.208-2.399-3.312-5.64-3.312-9.72v-24.624h9.72v22.968c0,2.16,0.492,3.815,1.476,4.968
		c0.983,1.152,2.531,1.728,4.644,1.728c2.304,0,4.115-0.779,5.436-2.34c1.32-1.559,1.98-3.563,1.98-6.012v-21.312h9.792v36.936
		H53.496z"/>
	<path d="M66.384,131.231h9.72l4.464,17.136c0.191,0.769,0.396,1.561,0.612,2.376c0.216,0.816,0.396,1.561,0.54,2.231
		c0.191,0.817,0.36,1.584,0.504,2.305h0.144c0.144-0.768,0.312-1.56,0.504-2.376c0.144-0.672,0.299-1.416,0.468-2.232
		c0.167-0.815,0.371-1.607,0.612-2.376l4.608-17.063h8.352l4.824,17.063c0.191,0.816,0.383,1.633,0.576,2.448
		c0.191,0.816,0.384,1.561,0.576,2.231c0.191,0.817,0.384,1.584,0.576,2.305h0.144c0.144-0.721,0.312-1.487,0.504-2.305
		c0.288-1.439,0.671-2.976,1.152-4.607l4.68-17.136h9.504l-11.016,36.936h-8.928l-4.896-18.144
		c-0.241-0.721-0.457-1.464-0.648-2.232c-0.192-0.767-0.36-1.464-0.504-2.088c-0.192-0.72-0.36-1.415-0.504-2.088h-0.144
		c-0.192,0.673-0.385,1.368-0.576,2.088c-0.192,0.624-0.385,1.321-0.576,2.088c-0.192,0.769-0.385,1.512-0.576,2.232l-5.04,18.144
		h-8.856L66.384,131.231z"/>
</g>
<polyline fill="#FFFFFF" points="324,138.667 348,138.667 336,155.917 "/>
<g>
	<path d="M66.087,60.529c0,4.608,0.144,8.353,0.288,11.305h-9.505l-0.504-4.969H56.15c-1.368,2.16-4.68,5.761-11.017,5.761
		c-7.128,0-12.385-4.464-12.385-15.337V36.623h11.017V55.56c0,5.112,1.656,8.209,5.473,8.209c3.024,0,4.752-2.089,5.473-3.816
		c0.288-0.648,0.36-1.513,0.36-2.376V36.623h11.017V60.529z"/>
	<path d="M82.429,36.623l2.808,14.401c0.72,3.672,1.44,7.561,2.016,11.593h0.144c0.72-4.032,1.728-8.064,2.592-11.521l3.744-14.473
		h8.641l3.528,14.041c0.936,3.96,1.872,7.921,2.592,11.953h0.144c0.504-4.032,1.224-7.993,2.017-12.024l3.024-13.97h10.729
		l-10.801,35.211h-10.297l-3.313-12.385c-0.864-3.457-1.512-6.625-2.232-10.945h-0.144c-0.648,4.393-1.368,7.633-2.304,10.945
		L91.79,71.833H81.493L71.268,36.623H82.429z"/>
</g>
<polyline fill="#FFFFFF" points="336,42.667 360,42.667 348,59.917 "/>
<g>
	<path fill="#209CEE" d="M141.393-125.452c0-5.185-0.144-8.568-0.288-11.593h9.433l0.36,6.48h0.288
		c1.8-5.112,6.121-7.272,9.505-7.272c1.008,0,1.512,0,2.304,0.144v10.297c-0.792-0.144-1.728-0.288-2.952-0.288
		c-4.032,0-6.769,2.16-7.489,5.545c-0.144,0.72-0.216,1.584-0.216,2.448v17.857h-10.945V-125.452z"/>
	<path fill="#209CEE" d="M187.979-101.833l-0.648-3.528h-0.216c-2.304,2.809-5.904,4.32-10.081,4.32
		c-7.129,0-11.377-5.185-11.377-10.801c0-9.145,8.208-13.537,20.666-13.465v-0.505c0-1.872-1.008-4.536-6.409-4.536
		c-3.6,0-7.417,1.225-9.721,2.664l-2.016-7.057c2.448-1.368,7.272-3.096,13.681-3.096c11.737,0,15.481,6.912,15.481,15.193v12.241
		c0,3.384,0.144,6.624,0.504,8.568H187.979z M186.682-118.467c-5.76-0.071-10.225,1.297-10.225,5.545
		c0,2.809,1.872,4.177,4.32,4.177c2.736,0,4.968-1.801,5.688-4.033c0.144-0.576,0.216-1.224,0.216-1.872V-118.467z"/>
	<path fill="#209CEE" d="M205.977-125.812c0-4.392-0.144-8.137-0.288-11.232h9.505l0.504,4.824h0.216
		c1.44-2.232,5.04-5.616,10.873-5.616c7.2,0,12.601,4.752,12.601,15.121v20.882h-10.944v-19.514c0-4.536-1.584-7.633-5.544-7.633
		c-3.025,0-4.825,2.088-5.545,4.104c-0.288,0.648-0.432,1.729-0.432,2.736v20.306h-10.945V-125.812z"/>
	<path fill="#209CEE" d="M259.113-122.211h0.145c0.792-1.44,1.656-2.88,2.52-4.248l7.129-10.585h13.178l-12.602,14.257
		l14.401,20.954h-13.466l-8.496-14.474l-2.809,3.457v11.017h-10.944v-51.125h10.944V-122.211z"/>
	<path fill="#209CEE" d="M287.12-111.411c2.017,1.225,6.192,2.665,9.433,2.665c3.313,0,4.681-1.152,4.681-2.953
		c0-1.8-1.08-2.664-5.185-4.032c-7.272-2.448-10.08-6.408-10.009-10.585c0-6.553,5.616-11.521,14.329-11.521
		c4.104,0,7.777,0.936,9.938,2.016l-1.945,7.561c-1.584-0.863-4.607-2.016-7.632-2.016c-2.665,0-4.177,1.08-4.177,2.88
		c0,1.656,1.368,2.521,5.689,4.032c6.695,2.305,9.504,5.688,9.576,10.873c0,6.553-5.185,11.377-15.266,11.377
		c-4.607,0-8.713-1.008-11.377-2.448L287.12-111.411z"/>
</g>
<g>
	<path d="M69.087-113.138c0,4.608,0.144,8.353,0.288,11.305h-9.505l-0.504-4.969H59.15c-1.368,2.16-4.68,5.761-11.017,5.761
		c-7.128,0-12.385-4.464-12.385-15.337v-20.666h11.017v18.938c0,5.112,1.656,8.209,5.473,8.209c3.024,0,4.752-2.089,5.473-3.816
		c0.288-0.648,0.36-1.513,0.36-2.376v-20.954h11.017V-113.138z"/>
	<path d="M85.429-137.044l2.808,14.401c0.72,3.672,1.44,7.561,2.016,11.593h0.144c0.72-4.032,1.728-8.064,2.592-11.521l3.744-14.473
		h8.641l3.528,14.041c0.936,3.96,1.872,7.921,2.592,11.953h0.144c0.504-4.032,1.224-7.993,2.017-12.025l3.024-13.969h10.729
		l-10.801,35.211h-10.297l-3.313-12.385c-0.864-3.457-1.512-6.625-2.232-10.945h-0.144c-0.648,4.393-1.368,7.633-2.304,10.945
		l-3.528,12.385H84.493l-10.225-35.211H85.429z"/>
</g>
<polyline fill="#209CEE" points="323,-128.333 347,-128.333 335,-111.083 "/>
<g>
</g>
<g>
</g>
<g>
</g>
<g>
</g>
<g>
</g>
<g>
</g>
<g>
</g>
<g>
</g>
<g>
</g>
<g>
</g>
<g>
</g>
<g>
</g>
<g>
</g>
<g>
</g>
<g>
</g>
</svg>
