<?xml version="1.0" encoding="utf-8"?>
<!-- Generator: Adobe Illustrator 16.0.0, SVG Export Plug-In . SVG Version: 6.00 Build 0)  -->
<!DOCTYPE svg PUBLIC "-//W3C//DTD SVG 1.1//EN" "http://www.w3.org/Graphics/SVG/1.1/DTD/svg11.dtd">
<svg version="1.1" id="Layer_1" xmlns="http://www.w3.org/2000/svg" xmlns:xlink="http://www.w3.org/1999/xlink" x="0px" y="0px"
	 width="428.979px" height="134.993px" viewBox="0 0 428.979 134.993" enable-background="new 0 0 428.979 134.993"
	 xml:space="preserve">
<path fill="#209CEE" d="M412.398,65.897c0,25.673-19.125,46.5-42.716,46.5H186.614c-23.591,0-42.716-20.827-42.716-46.5l0,0
	c0-25.673,19.125-46.5,42.716-46.5h183.068C393.273,19.397,412.398,40.224,412.398,65.897L412.398,65.897z"/>
<g>
	<path fill="#FFFFFF" d="M189.274,41.425c7.488,0,13.223,1.332,17.208,3.996c3.983,2.664,5.976,6.804,5.976,12.42
		c0,3.504-0.804,6.348-2.412,8.531c-1.609,2.186-3.924,3.9-6.948,5.148c1.008,1.249,2.063,2.677,3.168,4.284
		c1.104,1.608,2.196,3.288,3.276,5.04c1.08,1.753,2.124,3.576,3.132,5.472c1.008,1.896,1.944,3.757,2.808,5.58h-12.556
		c-0.916-1.631-1.844-3.287-2.783-4.968c-0.939-1.68-1.902-3.313-2.89-4.896s-1.964-3.083-2.927-4.5
		c-0.964-1.415-1.928-2.7-2.891-3.852h-5.544v18.216h-11.232V42.721c2.448-0.479,4.979-0.816,7.596-1.008
		C184.87,41.521,187.209,41.425,189.274,41.425z M189.922,51.001c-0.817,0-1.548,0.025-2.196,0.072
		c-0.648,0.049-1.26,0.097-1.836,0.144v13.537h3.168c4.223,0,7.247-0.528,9.072-1.584c1.824-1.056,2.736-2.855,2.736-5.4
		c0-2.448-0.924-4.188-2.772-5.22C196.246,51.518,193.522,51.001,189.922,51.001z"/>
	<path fill="#FFFFFF" d="M233.77,53.017c3.168,0,5.807,0.36,7.919,1.08s3.805,1.753,5.076,3.096
		c1.271,1.345,2.172,2.977,2.701,4.896c0.527,1.92,0.791,4.057,0.791,6.407v22.32c-1.537,0.337-3.672,0.732-6.408,1.188
		c-2.735,0.455-6.047,0.684-9.936,0.684c-2.448,0-4.669-0.216-6.66-0.648c-1.992-0.432-3.708-1.14-5.148-2.124
		c-1.44-0.982-2.544-2.268-3.312-3.852c-0.768-1.584-1.152-3.528-1.152-5.832c0-2.207,0.443-4.079,1.332-5.616
		c0.888-1.535,2.076-2.76,3.564-3.672c1.487-0.911,3.191-1.571,5.112-1.979c1.919-0.407,3.912-0.612,5.976-0.612
		c1.392,0,2.628,0.061,3.708,0.18c1.08,0.121,1.955,0.277,2.628,0.468v-1.008c0-1.823-0.552-3.287-1.655-4.392
		c-1.105-1.104-3.024-1.656-5.761-1.656c-1.825,0-3.625,0.133-5.4,0.396c-1.776,0.264-3.312,0.637-4.608,1.115l-1.368-8.64
		c0.624-0.191,1.404-0.396,2.34-0.612c0.936-0.216,1.955-0.407,3.06-0.575c1.104-0.168,2.268-0.313,3.492-0.433
		C231.286,53.078,232.521,53.017,233.77,53.017z M234.634,84.409c1.055,0,2.063-0.023,3.024-0.071
		c0.959-0.048,1.729-0.12,2.304-0.217v-8.136c-0.432-0.096-1.08-0.191-1.944-0.288c-0.863-0.096-1.655-0.144-2.375-0.144
		c-1.008,0-1.957,0.061-2.844,0.18c-0.889,0.12-1.668,0.349-2.34,0.684c-0.673,0.337-1.2,0.792-1.584,1.368
		c-0.385,0.576-0.576,1.296-0.576,2.16c0,1.681,0.564,2.844,1.692,3.492C231.117,84.085,232.665,84.409,234.634,84.409z"/>
	<path fill="#FFFFFF" d="M259.978,55.321c1.823-0.527,4.176-1.02,7.056-1.476s5.903-0.685,9.071-0.685
		c3.216,0,5.893,0.421,8.028,1.261s3.827,2.028,5.076,3.563c1.247,1.537,2.136,3.36,2.664,5.472
		c0.528,2.113,0.792,4.465,0.792,7.057v21.384h-10.729V71.809c0-3.456-0.456-5.904-1.367-7.344c-0.912-1.44-2.617-2.16-5.112-2.16
		c-0.769,0-1.584,0.036-2.448,0.107c-0.863,0.072-1.633,0.157-2.304,0.252v29.232h-10.728V55.321z"/>
	<path fill="#FFFFFF" d="M313.113,67.625c1.055-1.146,2.146-2.338,3.272-3.579c1.126-1.241,2.218-2.47,3.272-3.687
		c1.056-1.217,2.05-2.374,2.984-3.472c0.936-1.097,1.738-2.051,2.41-2.863h12.756c-2.544,2.923-5.028,5.713-7.451,8.37
		c-2.425,2.658-5.076,5.4-7.956,8.226c1.44,1.299,2.927,2.85,4.464,4.652c1.535,1.804,3.023,3.666,4.464,5.59s2.76,3.847,3.96,5.77
		c1.199,1.924,2.207,3.679,3.023,5.265h-12.335c-0.767-1.251-1.642-2.634-2.624-4.15c-0.981-1.515-2.023-3.03-3.126-4.546
		s-2.263-2.971-3.485-4.366c-1.222-1.395-2.432-2.574-3.629-3.537v16.6h-10.729V37.753l10.729-1.728V67.625z"/>
	<path fill="#FFFFFF" d="M354.945,84.193c1.967,0,3.359-0.191,4.176-0.576c0.814-0.384,1.223-1.127,1.223-2.231
		c0-0.864-0.527-1.62-1.584-2.269c-1.055-0.647-2.662-1.379-4.822-2.195c-1.682-0.624-3.205-1.271-4.572-1.944
		c-1.369-0.672-2.533-1.477-3.492-2.412c-0.961-0.936-1.705-2.052-2.232-3.348c-0.529-1.296-0.792-2.855-0.792-4.681
		c0-3.552,1.319-6.359,3.96-8.424c2.639-2.063,6.264-3.096,10.873-3.096c2.303,0,4.51,0.205,6.623,0.612
		c2.111,0.408,3.791,0.853,5.039,1.332l-1.871,8.352c-1.248-0.432-2.604-0.815-4.068-1.152c-1.465-0.335-3.107-0.504-4.932-0.504
		c-3.359,0-5.039,0.937-5.039,2.809c0,0.432,0.07,0.816,0.215,1.151c0.145,0.337,0.432,0.661,0.865,0.973
		c0.432,0.313,1.018,0.649,1.764,1.012c0.742,0.364,1.691,0.763,2.844,1.197c2.352,0.872,4.295,1.731,5.832,2.577
		c1.535,0.848,2.746,1.762,3.635,2.743c0.889,0.982,1.514,2.072,1.873,3.27c0.359,1.196,0.539,2.586,0.539,4.166
		c0,3.735-1.402,6.562-4.211,8.478c-2.809,1.915-6.781,2.873-11.916,2.873c-3.361,0-6.156-0.288-8.389-0.864
		c-2.231-0.575-3.779-1.055-4.644-1.439l1.8-8.712c1.824,0.72,3.695,1.284,5.616,1.691C351.175,83.99,353.072,84.193,354.945,84.193
		z"/>
</g>
<g>
	<path d="M43.004,96.405c-3.504,0-6.528-0.492-9.072-1.476c-2.545-0.983-4.644-2.352-6.3-4.104c-1.656-1.751-2.88-3.84-3.672-6.264
		c-0.792-2.423-1.188-5.1-1.188-8.028V45.501h11.232v30.096c0,2.016,0.227,3.732,0.684,5.147c0.456,1.417,1.08,2.568,1.872,3.456
		c0.792,0.889,1.751,1.524,2.88,1.908c1.127,0.385,2.364,0.576,3.708,0.576c2.736,0,4.956-0.839,6.66-2.521
		c1.703-1.68,2.556-4.535,2.556-8.567V45.501h11.232v31.032c0,2.929-0.408,5.616-1.224,8.064c-0.817,2.448-2.064,4.548-3.744,6.3
		c-1.681,1.753-3.816,3.108-6.408,4.068C49.628,95.924,46.556,96.405,43.004,96.405z"/>
	<path d="M107.926,50.829c0.575,1.969,1.209,4.188,1.905,6.66c0.695,2.473,1.438,5.029,2.229,7.668
		c0.79,2.641,1.593,5.281,2.408,7.92c0.814,2.64,1.605,5.088,2.373,7.344c0.626-2.448,1.266-5.112,1.917-7.992
		c0.65-2.88,1.266-5.856,1.844-8.928c0.578-3.071,1.146-6.131,1.7-9.18c0.555-3.047,1.073-5.987,1.556-8.82h11.667
		c-1.69,8.352-3.634,16.824-5.831,25.416c-2.197,8.592-4.575,16.752-7.134,24.48h-10.273c-1.677-4.608-3.306-9.443-4.887-14.508
		c-1.582-5.063-3.139-10.14-4.671-15.228c-1.538,5.088-3.076,10.165-4.613,15.228c-1.538,5.064-3.148,9.899-4.83,14.508H83.019
		c-2.556-7.728-4.93-15.888-7.123-24.48c-2.194-8.592-4.133-17.064-5.821-25.416h12.168c0.481,2.833,1.013,5.772,1.592,8.82
		c0.579,3.049,1.182,6.109,1.809,9.18c0.627,3.072,1.266,6.048,1.917,8.928c0.651,2.88,1.315,5.544,1.99,7.992
		c0.865-2.352,1.707-4.848,2.524-7.488c0.817-2.639,1.611-5.28,2.38-7.92c0.77-2.64,1.479-5.184,2.127-7.632
		c0.649-2.448,1.239-4.631,1.768-6.552H107.926z"/>
</g>
<polyline fill="#FFFFFF" points="377.898,62.397 401.898,62.397 389.898,79.647 "/>
<g>
</g>
<g>
</g>
<g>
</g>
<g>
</g>
<g>
</g>
<g>
</g>
<g>
</g>
<g>
</g>
<g>
</g>
<g>
</g>
<g>
</g>
<g>
</g>
<g>
</g>
<g>
</g>
<g>
</g>
</svg>
