<?xml version="1.0" encoding="utf-8"?>
<!-- Generator: Adobe Illustrator 16.0.0, SVG Export Plug-In . SVG Version: 6.00 Build 0)  -->
<!DOCTYPE svg PUBLIC "-//W3C//DTD SVG 1.1//EN" "http://www.w3.org/Graphics/SVG/1.1/DTD/svg11.dtd">
<svg version="1.1" xmlns="http://www.w3.org/2000/svg" xmlns:xlink="http://www.w3.org/1999/xlink" x="0px" y="0px" width="304px"
	 height="78px" viewBox="0 0 304 78" enable-background="new 0 0 304 78" xml:space="preserve">
<g id="Layer_3">
	<path fill="#209CEE" stroke="#DBDBDB" stroke-width="2" stroke-miterlimit="10" d="M291,58.429C291,65.924,286.021,72,279.757,72
		H123.839C117.577,72,112,65.924,112,58.429V24.502C112,17.009,117.577,12,123.839,12h155.917C286.021,12,291,17.009,291,24.502
		V58.429z"/>
	<polygon fill="#FFFFFF" points="264,39 283,39 273.5,48.615 	"/>
</g>
<g id="Layer_2">
	<g>
		<path d="M20.47,24.396v23.219c0,7.02,2.7,10.56,7.319,10.56c4.8,0,7.44-3.36,7.44-10.56V24.396h9.12v22.679
			c0,12.48-6.3,18.419-16.859,18.419c-10.2,0-16.139-5.7-16.139-18.54V24.396H20.47z"/>
		<path d="M58.809,64.834l-9.6-40.438h9.78l3.06,16.62c0.9,4.86,1.74,10.08,2.4,14.219h0.12c0.66-4.44,1.62-9.3,2.64-14.339
			l3.42-16.5h9.719l3.24,17.04c0.9,4.74,1.56,9.06,2.16,13.559h0.12c0.6-4.5,1.5-9.239,2.34-14.099l3.3-16.5h9.3l-10.44,40.438
			h-9.899l-3.42-17.399c-0.78-4.08-1.44-7.859-1.92-12.479h-0.12c-0.72,4.56-1.38,8.4-2.34,12.479l-3.84,17.399H58.809z"/>
	</g>
	<g>
		<path fill="#FFFFFF" d="M128.439,41.354c0-3.42-0.061-6.359-0.24-9.06h4.62l0.24,5.7h0.18c1.319-3.9,4.56-6.36,8.1-6.36
			c0.54,0,0.96,0.061,1.439,0.181v4.92c-0.6-0.061-1.14-0.12-1.859-0.12c-3.72,0-6.36,2.819-7.08,6.72
			c-0.12,0.779-0.18,1.62-0.18,2.52v15.479h-5.28L128.439,41.354z"/>
		<path fill="#FFFFFF" d="M168.099,54.374c0,2.521,0.12,4.98,0.42,6.96h-4.739l-0.48-3.66h-0.18c-1.561,2.28-4.74,4.32-8.88,4.32
			c-5.88,0-8.88-4.14-8.88-8.34c0-7.02,6.24-10.859,17.46-10.8v-0.6c0-2.4-0.66-6.78-6.601-6.72c-2.76,0-5.579,0.78-7.619,2.16
			l-1.2-3.54c2.4-1.5,5.94-2.521,9.6-2.521c8.939,0,11.1,6.061,11.1,11.88V54.374z M162.939,46.515c-5.76-0.12-12.3,0.899-12.3,6.54
			c0,3.479,2.279,5.039,4.92,5.039c3.84,0,6.3-2.399,7.14-4.859c0.18-0.54,0.24-1.14,0.24-1.68V46.515z"/>
		<path fill="#FFFFFF" d="M176.559,40.155c0-3.061-0.061-5.46-0.24-7.86h4.68l0.301,4.74h0.119c1.44-2.7,4.8-5.4,9.6-5.4
			c4.021,0,10.26,2.4,10.26,12.36v17.339h-5.279V44.595c0-4.68-1.74-8.64-6.72-8.64c-3.42,0-6.12,2.46-7.08,5.399
			c-0.24,0.66-0.36,1.62-0.36,2.46v17.52h-5.279V40.155z"/>
		<path fill="#FFFFFF" d="M215.138,45.614h0.12c0.721-1.02,1.681-2.34,2.521-3.3l8.579-10.02h6.3l-11.22,11.939l12.78,17.1h-6.42
			l-9.96-13.979l-2.7,3.06v10.92h-5.279V18.735h5.279V45.614z"/>
		<path fill="#FFFFFF" d="M237.278,55.994c1.62,0.96,4.38,2.04,7.02,2.04c3.779,0,5.58-1.86,5.58-4.32c0-2.52-1.5-3.899-5.34-5.339
			c-5.28-1.92-7.74-4.74-7.74-8.22c0-4.681,3.84-8.521,10.02-8.521c2.94,0,5.521,0.78,7.08,1.801l-1.26,3.779
			c-1.141-0.66-3.24-1.68-5.94-1.68c-3.119,0-4.8,1.8-4.8,3.96c0,2.46,1.681,3.54,5.46,4.979c4.98,1.86,7.62,4.38,7.62,8.76
			c0,5.16-4.021,8.76-10.8,8.76c-3.18,0-6.12-0.84-8.16-2.04L237.278,55.994z"/>
	</g>
	<g>
	</g>
	<g>
	</g>
	<g>
	</g>
	<g>
	</g>
	<g>
	</g>
	<g>
	</g>
	<g>
	</g>
	<g>
	</g>
	<g>
	</g>
	<g>
	</g>
	<g>
	</g>
	<g>
	</g>
	<g>
	</g>
	<g>
	</g>
	<g>
	</g>
</g>
</svg>
